<?xml version="1.0" encoding="utf-8"?>
<!-- Generator: Adobe Illustrator 23.0.1, SVG Export Plug-In . SVG Version: 6.00 Build 0)  -->
<svg version="1.1" id="icons" xmlns="http://www.w3.org/2000/svg" xmlns:xlink="http://www.w3.org/1999/xlink" x="0px" y="0px"
	 viewBox="0 0 24 24" style="enable-background:new 0 0 24 24;" xml:space="preserve">
<style type="text/css">
	.st0{fill:none;stroke:#9AC63C;stroke-linecap:round;stroke-miterlimit:10;}
	.st1{fill:none;stroke:#F4C259;stroke-linecap:round;stroke-miterlimit:10;}
	.st2{fill:none;stroke:#CD474A;stroke-linecap:round;stroke-linejoin:round;stroke-miterlimit:10;}
	.st3{fill:none;stroke:#2790EF;stroke-linecap:round;stroke-miterlimit:10;}
	.st4{fill:none;stroke:#298FEC;stroke-linecap:round;stroke-linejoin:round;stroke-miterlimit:10;}
	.st5{fill:none;stroke:#298FEC;stroke-linecap:round;stroke-miterlimit:10;}
</style>
<g id="spring">
	<path class="st0" d="M-78.6,23c-5-1.1-8.8-5.6-8.8-11c0-6.2,5-11.3,11.3-11.3s11.3,5,11.3,11.3s-5,11.3-11.3,11.3
		c0,0-2.3-13.5,7.4-11.8c0,0,0.9,8.5-7.2,6.9"/>
	<path class="st0" d="M-76.1,12c0,0,5.6-4,0-8.7C-76.1,3.4-81.5,7.7-76.1,12z"/>
	<path class="st0" d="M-78,16.5c0,0,1.1-6.1-5.5-5.6C-83.5,10.9-84.2,17.1-78,16.5z"/>
</g>
<g id="summer">
	<path class="st1" d="M-34.4,23c-5-1.1-8.8-5.6-8.8-11c0-6.2,5-11.3,11.3-11.3s11.3,5,11.3,11.3s-5,11.3-11.3,11.3"/>
	<line class="st1" x1="-31.9" y1="23.3" x2="-31.9" y2="17.4"/>
	<circle class="st1" cx="-32" cy="12" r="4.8"/>
	<line class="st1" x1="-31.9" y1="4.2" x2="-31.9" y2="7.1"/>
	<line class="st1" x1="-34.9" y1="4.8" x2="-33.8" y2="7.4"/>
	<line class="st1" x1="-37.4" y1="6.5" x2="-35.4" y2="8.5"/>
	<line class="st1" x1="-39.1" y1="9" x2="-36.5" y2="10.1"/>
	<line class="st1" x1="-39.7" y1="12" x2="-36.8" y2="12"/>
	<line class="st1" x1="-39.1" y1="14.9" x2="-36.5" y2="13.9"/>
	<line class="st1" x1="-37.4" y1="17.5" x2="-35.4" y2="15.5"/>
	<line class="st1" x1="-34.9" y1="19.1" x2="-33.8" y2="16.5"/>
	<line class="st1" x1="-28.9" y1="19.1" x2="-30" y2="16.5"/>
	<line class="st1" x1="-26.4" y1="17.5" x2="-28.4" y2="15.5"/>
	<line class="st1" x1="-24.8" y1="15" x2="-27.4" y2="13.9"/>
	<line class="st1" x1="-24.2" y1="12" x2="-27" y2="12"/>
	<line class="st1" x1="-24.8" y1="9" x2="-27.4" y2="10.1"/>
	<line class="st1" x1="-26.4" y1="6.5" x2="-28.4" y2="8.5"/>
	<line class="st1" x1="-28.9" y1="4.8" x2="-30" y2="7.4"/>
</g>
<path id="Autumn" class="st2" d="M9.6,23c-5-1.1-8.8-5.6-8.8-11c0-6.2,5-11.3,11.3-11.3s11.3,5,11.3,11.3s-5,11.3-11.3,11.3l0.2-5.9
	l3.4,0.8l-0.5-2.6l4.7-0.8l-1-1.7l1.5-2l-2.5-0.3L18,8.6l-2.5,1.8l0.6-5.3L14,6.3l-1.7-2.8l-1.2,2.8L8.6,5.1l0.6,5.6L7,8.9l-0.3,1.8
	l-2.5,0.4L6,13l-1.3,1.4l4.7,0.9l-0.7,2.7l3.6-0.6"/>
<g id="winter">
	<path class="st3" d="M53.5,23c-5-1.1-8.8-5.6-8.8-11c0-6.2,5-11.3,11.3-11.3s11.3,5,11.3,11.3s-5,11.3-11.3,11.3"/>
	<polygon class="st4" points="54.1,12.9 54.1,10.8 55.9,9.8 57.7,10.8 57.7,12.8 55.9,13.9 	"/>
	<g>
		<line class="st4" x1="55.9" y1="9.8" x2="55.9" y2="3.8"/>
		<line class="st5" x1="57.7" y1="5.2" x2="56.1" y2="6.4"/>
		<line class="st4" x1="54.2" y1="5.2" x2="55.6" y2="6.4"/>
	</g>
	<g>
		<line class="st4" x1="54.4" y1="10.4" x2="50.2" y2="6.2"/>
		<line class="st5" x1="52.5" y1="5.9" x2="52.2" y2="7.8"/>
		<line class="st4" x1="50" y1="8.3" x2="51.9" y2="8.2"/>
	</g>
	<g>
		<line class="st4" x1="53.8" y1="11.8" x2="47.9" y2="11.8"/>
		<line class="st5" x1="49.3" y1="10" x2="50.5" y2="11.5"/>
		<line class="st4" x1="49.3" y1="13.5" x2="50.5" y2="12.1"/>
	</g>
	<g>
		<line class="st4" x1="54.5" y1="13.3" x2="50.2" y2="17.5"/>
		<line class="st5" x1="50" y1="15.2" x2="51.9" y2="15.5"/>
		<line class="st4" x1="52.4" y1="17.7" x2="52.2" y2="15.8"/>
	</g>
	<g>
		<line class="st4" x1="55.9" y1="13.8" x2="55.9" y2="23.3"/>
		<line class="st5" x1="54.1" y1="18.4" x2="55.6" y2="17.2"/>
		<line class="st4" x1="57.6" y1="18.4" x2="56.1" y2="17.2"/>
	</g>
	<g>
		<line class="st4" x1="57.3" y1="13.2" x2="61.6" y2="17.5"/>
		<line class="st5" x1="59.3" y1="17.7" x2="59.5" y2="15.8"/>
		<line class="st4" x1="61.7" y1="15.3" x2="59.9" y2="15.4"/>
	</g>
	<g>
		<line class="st4" x1="57.9" y1="11.8" x2="63.9" y2="11.8"/>
		<line class="st5" x1="62.5" y1="13.6" x2="61.3" y2="12.1"/>
		<line class="st4" x1="62.5" y1="10.1" x2="61.3" y2="11.5"/>
	</g>
	<g>
		<line class="st4" x1="57.3" y1="10.4" x2="61.5" y2="6.1"/>
		<line class="st5" x1="61.8" y1="8.4" x2="59.9" y2="8.2"/>
		<line class="st4" x1="59.3" y1="5.9" x2="59.5" y2="7.8"/>
	</g>
</g>
</svg>
