<?xml version="1.0" encoding="utf-8"?>
<!-- Generator: Adobe Illustrator 23.0.1, SVG Export Plug-In . SVG Version: 6.00 Build 0)  -->
<svg version="1.1" id="OBJECTS" xmlns="http://www.w3.org/2000/svg" xmlns:xlink="http://www.w3.org/1999/xlink" x="0px" y="0px"
	 viewBox="0 0 1000 452.5" style="enable-background:new 0 0 1000 452.5;" xml:space="preserve">
<style type="text/css">
	.st0{fill:#E6F2F9;}
	.st1{fill:#B8D5E4;}
	.st2{fill:#D2E7F4;}
	.st3{fill:#FFFFFF;}
	.st4{fill:#1A2743;}
	.st5{fill:#722E53;}
	.st6{fill:#B22F70;}
	.st7{fill:none;stroke:#1C2A3E;stroke-width:2.2741;stroke-miterlimit:10;}
	.st8{fill:#F2B395;}
	.st9{fill:#D99A32;}
	.st10{fill:#F6EDC1;}
	.st11{fill:#E7B955;}
	.st12{fill:#EFCF79;}
	.st13{fill:#BB6B45;}
	.st14{fill:#DC9A52;}
	.st15{fill:#D99469;}
	.st16{fill:#F5E1A8;}
	.st17{fill:#CCFFFF;}
	.st18{fill:#C5E7AD;}
	.st19{fill:#92CA84;}
	.st20{fill:#6C7D47;}
	.st21{fill:#9CBD6A;}
	.st22{fill:#4F9151;}
	.st23{fill:#CC0033;}
	.st24{fill:#D7F5FF;}
	.st25{fill:#B6CF94;}
	.st26{fill:#9AC091;}
	.st27{fill:#EAAF29;}
	.st28{fill:#8DB458;}
	.st29{fill:#1C2A3E;}
</style>
<g id="winter">
	<g id="bg_2_">
		<polygon class="st0" points="1000.1,391.6 0,391.7 0.4,0.3 1000.1,0.3 		"/>
		<path class="st1" d="M-0.1,239.1c0,0,82.4-4.2,212.6,32.9c212.7,60.6,440.8,68.9,658.1,22.7c49.4-10.5,90.6-12.6,129.1-2.4
			c0,61.2,1.1,84.5-0.6,155.2C998.9,458.6,0,449.3,0,449.3L-0.1,239.1z"/>
		<path class="st2" d="M0.2,382.1c0,0,380.3-12.8,1000.1,1.8v68.7L0,452.5L0.2,382.1z"/>
	</g>
	<g id="flake">
		<polygon class="st3" points="905.9,174.8 905.8,170.7 903.5,172.6 902,170.7 905.8,167.5 905.8,163.9 902.1,163.9 899.1,167.8 
			897.1,166.2 899,163.9 894.9,163.9 894.8,161.5 899,161.5 897.1,159.2 899,157.6 902.1,161.5 905.8,161.5 905.8,157.8 
			901.9,154.7 903.4,152.8 905.8,154.6 905.8,150.5 908.1,150.5 908.2,154.6 910.5,152.8 912,154.7 908.2,157.8 908.2,161.5 
			911.9,161.5 914.9,157.5 916.9,159.1 915,161.4 919.1,161.4 919.2,163.8 915,163.8 916.9,166.2 915,167.7 911.9,163.8 
			908.2,163.9 908.2,167.5 912.1,170.6 910.6,172.5 908.2,170.7 908.2,174.8 		"/>
		<polygon class="st3" points="429.1,118.7 431.7,130.7 443.8,133.3 431.7,135.9 429.1,148 426.5,135.9 414.4,133.3 426.5,130.7 		
			"/>
		<polygon class="st3" points="257.2,231.7 257.2,227.6 254.8,229.5 253.3,227.6 257.2,224.4 257.1,220.8 253.5,220.8 250.4,224.7 
			248.4,223.2 250.3,220.8 246.2,220.8 246.2,218.4 250.3,218.4 248.4,216.1 250.3,214.5 253.5,218.4 257.1,218.4 257.1,214.7 
			253.2,211.7 254.7,209.7 257.1,211.6 257.1,207.4 259.5,207.4 259.5,211.5 261.8,209.7 263.4,211.6 259.5,214.7 259.5,218.4 
			263.2,218.4 266.3,214.5 268.2,216 266.3,218.4 270.5,218.3 270.5,220.7 266.4,220.7 268.2,223.1 266.3,224.6 263.2,220.8 
			259.5,220.8 259.5,224.4 263.4,227.5 261.9,229.5 259.5,227.6 259.6,231.7 		"/>
		<polygon class="st3" points="40.8,126.2 40.8,122.1 38.4,123.9 36.9,122 40.8,118.9 40.7,115.2 37.1,115.3 34,119.2 32.1,117.6 
			33.9,115.3 29.8,115.3 29.8,112.9 33.9,112.9 32,110.5 34,109 37.1,112.9 40.7,112.9 40.7,109.2 36.8,106.1 38.4,104.2 40.7,106 
			40.7,101.9 43.1,101.9 43.1,106 45.4,104.1 47,106.1 43.1,109.2 43.1,112.8 46.8,112.8 49.9,108.9 51.8,110.5 50,112.8 
			54.1,112.8 54.1,115.2 50,115.2 51.8,117.5 49.9,119.1 46.8,115.2 43.1,115.2 43.1,118.9 47.1,122 45.5,123.9 43.2,122.1 
			43.2,126.2 		"/>
		<polygon class="st3" points="709.5,277.2 709.5,273.1 707.1,275 705.6,273.1 709.4,270 709.4,266.3 705.8,266.3 702.7,270.2 
			700.7,268.7 702.6,266.3 698.5,266.3 698.5,264 702.6,263.9 700.7,261.6 702.6,260.1 705.7,263.9 709.4,263.9 709.4,260.2 
			705.5,257.2 707,255.2 709.4,257.1 709.4,253 711.7,252.9 711.8,257.1 714.1,255.2 715.6,257.1 711.8,260.2 711.8,263.9 
			715.5,263.9 718.5,260 720.5,261.5 718.6,263.9 722.7,263.8 722.8,266.2 718.6,266.2 720.5,268.6 718.6,270.1 715.5,266.3 
			711.8,266.3 711.8,269.9 715.7,273 714.2,275 711.8,273.1 711.9,277.2 		"/>
		<polygon class="st3" points="881.8,243.2 884.4,255.2 896.5,257.8 884.4,260.4 881.8,272.5 879.2,260.4 867.2,257.8 879.2,255.2 
					"/>
		<polygon class="st3" points="107.7,191.2 110.4,203.3 122.4,205.9 110.4,208.5 107.7,220.6 105.1,208.5 93.1,205.9 105.1,203.3 		
			"/>
		<polygon class="st3" points="708.7,58.4 711.3,70.5 723.3,73.1 711.3,75.7 708.7,87.8 706,75.7 694,73.1 706,70.5 		"/>
		<polygon class="st3" points="439.5,257.4 439.4,253.2 437.1,255.1 435.6,253.2 439.4,250.1 439.4,246.4 435.7,246.4 432.7,250.3 
			430.7,248.8 432.6,246.4 428.5,246.5 428.4,244.1 432.6,244 430.7,241.7 432.6,240.2 435.7,244 439.4,244 439.4,240.4 
			435.5,237.3 437,235.3 439.4,237.2 439.4,233.1 441.7,233.1 441.8,237.2 444.1,235.3 445.6,237.2 441.8,240.3 441.8,244 
			445.5,244 448.5,240.1 450.5,241.6 448.6,244 452.7,244 452.8,246.3 448.6,246.4 450.5,248.7 448.6,250.2 445.5,246.4 
			441.8,246.4 441.8,250.1 445.7,253.1 444.2,255.1 441.8,253.2 441.8,257.3 		"/>
	</g>
	<g id="Winterbike">
		<g id="weels_1_">
			<g>
				<g>
					<polygon class="st3" points="470,383.6 463.1,428.8 476.9,428.8 					"/>
					<polygon class="st3" points="470,385 476.9,339.8 463.1,339.8 					"/>
					<g>
						<polygon class="st3" points="469.3,384.3 514.5,391.2 514.5,377.4 						"/>
						<polygon class="st3" points="470.7,384.3 425.5,377.4 425.5,391.2 						"/>
					</g>
				</g>
				<g>
					<polygon class="st3" points="470.5,383.8 433.7,410.9 443.4,420.6 					"/>
					<polygon class="st3" points="469.5,384.8 506.3,357.7 496.6,348 					"/>
					<g>
						<polygon class="st3" points="469.5,383.8 496.6,420.6 506.3,410.9 						"/>
						<polygon class="st3" points="470.5,384.8 443.4,348 433.7,357.7 						"/>
					</g>
				</g>
			</g>
			<g>
				<g>
					<polygon class="st3" points="612.7,383.6 605.8,428.8 619.5,428.8 					"/>
					<polygon class="st3" points="612.7,385 619.5,339.8 605.8,339.8 					"/>
					<g>
						<polygon class="st3" points="611.9,384.3 657.1,391.2 657.1,377.4 						"/>
						<polygon class="st3" points="613.4,384.3 568.2,377.4 568.2,391.2 						"/>
					</g>
				</g>
				<g>
					<polygon class="st3" points="613.2,383.8 576.4,410.9 586.1,420.6 					"/>
					<polygon class="st3" points="612.2,384.8 649,357.7 639.3,348 					"/>
					<g>
						<polygon class="st3" points="612.2,383.8 639.3,420.6 649,410.9 						"/>
						<polygon class="st3" points="613.2,384.8 586.1,348 576.4,357.7 						"/>
					</g>
				</g>
			</g>
		</g>
		<path class="st4" d="M609.2,294l-32.7,44.8l-10.8,56.3l-11.2,0.8l5.2-63c0.2-2.8,1-5.6,2.4-8.1l24.3-45.5L609.2,294z"/>
		<path class="st5" d="M561.6,403.5h-17c-1.3,0-2.3-1-2.3-2.3l0,0c0-1.3,1-2.3,2.3-2.3h17c1.3,0,2.3,1,2.3,2.3l0,0
			C563.9,402.5,562.9,403.5,561.6,403.5z"/>
		<path class="st3" d="M553.4,388c0,0-15.5,2.9-19.5,5.1c-1.2,0.7-2,1.6-2.4,2.5c-1,1.9,0.8,4.3,3.3,4.4c5.2,0.4,12.7,0.2,22.5,0.4
			c4.9,0.1,11.6,0.9,12.8-0.3c2.5-2.6-2.7-12.3-2.7-12.3L553.4,388z"/>
		<g>
			<circle class="st6" cx="541.7" cy="382.4" r="15.9"/>
			<circle class="st5" cx="541.7" cy="382.4" r="12.9"/>
		</g>
		<g>
			<circle class="st7" cx="470.2" cy="383.3" r="45.2"/>
			<circle class="st6" cx="470.2" cy="383.3" r="4.7"/>
		</g>
		<g>
			<path class="st6" d="M470.2,426.3c-23.7,0-43-19.3-43-43s19.3-43,43-43c23.7,0,43,19.3,43,43S493.9,426.3,470.2,426.3z
				 M470.2,344.4c-21.4,0-38.9,17.4-38.9,38.9c0,21.4,17.4,38.9,38.9,38.9s38.9-17.4,38.9-38.9C509,361.9,491.6,344.4,470.2,344.4z"
				/>
		</g>
		<g>
			<circle class="st7" cx="612.3" cy="383.3" r="45.2"/>
			<circle class="st6" cx="612.3" cy="383.3" r="4.7"/>
			<g>
				<path class="st6" d="M612,426.3c-23.7,0-43-19.3-43-43s19.3-43,43-43c23.7,0,43,19.3,43,43S635.7,426.3,612,426.3z M612,344.4
					c-21.4,0-38.9,17.4-38.9,38.9c0,21.4,17.4,38.9,38.9,38.9s38.9-17.4,38.9-38.9C650.9,361.9,633.5,344.4,612,344.4z"/>
			</g>
		</g>
		<path class="st6" d="M469.8,384.9c-0.2,0-0.3,0-0.5-0.1c-1.1-0.3-1.7-1.3-1.5-2.4l30.5-114.6c0.3-1.1,1.3-1.8,2.4-1.5
			c1.1,0.3,1.7,1.3,1.5,2.4l-30.5,114.6C471.6,384.3,470.7,384.9,469.8,384.9z"/>
		<path class="st6" d="M543.1,384.3c-0.3,0-0.7-0.1-1-0.3c-0.9-0.6-1.2-1.8-0.6-2.7l46.4-71.8c0.6-0.9,1.8-1.2,2.7-0.6
			c0.9,0.6,1.2,1.8,0.6,2.7l-46.4,71.8C544.4,384,543.7,384.3,543.1,384.3z"/>
		<path class="st5" d="M571.7,304.3c0.7-5.1,5.1-4.4,17.4-3.6c12.3,0.7,11-5.1,20.3-3.6c9.4,1.5,3.6,10.7-9.4,13.4
			C590.9,312.4,570.9,309.4,571.7,304.3z"/>
		<path class="st6" d="M584.4,320.2c-0.1,0-0.2,0-0.4,0l-93.6-5.9c-1.1-0.1-1.9-1-1.9-2.1c0.1-1.1,1-1.9,2.1-1.9l93.6,5.9
			c1.1,0.1,1.9,1,1.9,2.1C586.1,319.3,585.4,320.1,584.4,320.2z"/>
		<path class="st6" d="M612.7,385.5C612.7,385.5,612.7,385.5,612.7,385.5l-71.2-0.8c-0.5,0-1-0.2-1.4-0.6l-52-67.4
			c-0.7-0.8-0.7-2,0.1-2.8s2-0.7,2.8,0.1l51.4,66.8l67.3,0.8l-26.8-63.4c-0.4-1,0-2.1,1-2.6c1-0.4,2.1,0,2.6,1l28,66.2
			c0.3,0.6,0.2,1.3-0.2,1.8C613.9,385.2,613.3,385.5,612.7,385.5z"/>
		<g>
			<path class="st8" d="M555.2,167.2c-6.7,1.8-5.9,7.9-4.4,16.1c0.2,1.3,1.2,3.3,1,4.6L550,192c-0.1,0.8,0.5,1.5,1.3,1.4l2-0.4
				c2.2,4.7,4.5,6.3,7.3,6.2c7.9-0.4,20.5-14.5,17.9-24.2C576,165.4,562.8,165.1,555.2,167.2z"/>
		</g>
		<path class="st3" d="M572.7,204.5c0,0,18.3,6.8,25.2,36.1s11.1,37,11.1,37l-31.9-1.6c0,0-5.2-12.1-14.2-24.2
			c-13.7-18.6-0.1-40.2,1.4-44.5C567.9,197.3,572.7,204.5,572.7,204.5z"/>
		<path class="st8" d="M561.2,196.3c0,0,9.5-0.7,5,7.2c-1.8,3.2,9.4,1.6,9.4,1.6s-0.1-2.1,2.1-16.3L561.2,196.3z"/>
		<path class="st8" d="M516.7,261.4l-12-1.5c-2.1-0.3-4.1,0.6-5.3,2.3l-2.5,3.2c-0.8,1.1-0.6,2.6,0.5,3.3l6.2,4.2l7.8-4.8
			L516.7,261.4z"/>
		<path class="st4" d="M574.1,218.6c-7.8-3.4-19.7,30.5-27.2,35.4c-7.4,4.8-36.5,7.1-36.5,7.1l0.5,5.5c0,0,37.9,2,44.2-2.5
			S586.1,223.8,574.1,218.6z"/>
		<circle class="st6" cx="505.9" cy="272.2" r="4.1"/>
		<path class="st4" d="M577.4,275.6c0,0-44.3,16.5-45.5,21.1c-1.2,4.5,14.6,59.8,14.6,59.8l12.2-4.9c0,0-8.8-39.7-7.1-43.4
			c1.7-3.7,46.5-2.2,56-11.4s-1-25.3-1-25.3L577.4,275.6z"/>
		<path class="st9" d="M564.2,164.4c0,0-11.6-16.9,6-10.6c8.7,3.1,3.8,11.7-1.3,11.7c-3.4,0-5-1-5-1"/>
		<path class="st6" d="M462.6,282.6l32.5,6.4l-11.1,40.7l-12.9-2.1c-5.3-0.9-9.2-6.2-9.1-12.6L462.6,282.6z"/>
		<path class="st5" d="M560,370.4l-15.8,6.1c-1.2,0.5-2.5-0.1-3-1.3l0,0c-0.5-1.2,0.1-2.5,1.3-3l15.8-6.1c1.2-0.5,2.5,0.1,3,1.3l0,0
			C561.7,368.6,561.1,370,560,370.4z"/>
		<path class="st3" d="M546.5,356.2c0,0-14.4,9.2-17.6,13.1c0,0-0.1,0.1-0.1,0.1c-2.6,3.3,0.7,7.9,4.7,6.8
			c5.3-1.5,13.5-4.6,20.1-7.5c2-0.9,10-3.4,10.8-5.2c1.7-3.8-5.7-12.1-5.7-12.1L546.5,356.2z"/>
		<path class="st9" d="M558.9,160.9c0,0,10.3-4.6,21.3,11.1c11,15.7,40.4-25.8,54.9-1.1c35.4-1.5,34.9,19.4,24.4,25.9
			c17.5,12.7-10.7,43-38.6,27.2c-13.7,14.7-37.3,9.1-44.9-17.8C548.3,183,565.2,173,556.6,179c-3.8,2.8-6.6,2.3-8.4,1.2
			c-2-1.2-3-3.5-2.9-5.8C545.5,170.4,550,162.3,558.9,160.9z"/>
	</g>
</g>
<g id="automn">
	<g id="bg_1_">
		<polygon class="st10" points="1000.1,391.6 0,391.6 0,0 1000.1,0.3 		"/>
		<path class="st11" d="M0,239.1c0,0,82.4-4.2,212.7,32.8c212.8,60.5,441,68.8,658.4,22.7c49.4-10.5,89.4-14.4,127.9-4.2
			c-2.1,65.1,1,95.1,0.7,161.8c0,2.4-999.7-4.2-999.6,0.3L0,239.1z"/>
		<path class="st12" d="M0.5,382.1c0,0,380.1-12.8,999.5,1.8v68.4L0,452.5L0.5,382.1z"/>
	</g>
	<g id="leaves_2_">
		<path class="st13" d="M982,346.9c0,16.5-9.6,23.8-21.5,23.8s-21.5-7.4-21.5-23.8c0-16.5,9.6-49,21.5-49S982,330.5,982,346.9z"/>
		<path class="st14" d="M309.9,346.5c0,14-8.2,20.3-18.3,20.3c-10.1,0-18.3-6.3-18.3-20.3c0-14,8.2-41.7,18.3-41.7
			C301.7,304.8,309.9,332.5,309.9,346.5z"/>
		<path class="st15" d="M351,334.1c0,19.7-11.5,28.5-25.7,28.5c-14.2,0-25.7-8.8-25.7-28.5s11.5-58.6,25.7-58.6
			C339.5,275.5,351,314.4,351,334.1z"/>
		<path class="st14" d="M803,325.4c-0.3,20.4-18.6,42.8-39,42.5c-20.4-0.3-35.2-23.2-34.9-43.6c0.3-20.4,16.6-31.6,37-31.3
			C786.5,293.3,803.3,305,803,325.4z"/>
		<path class="st16" d="M823.9,338.7c0,15.3-13.5,32.3-28.8,32.3c-15.3,0-26.7-17-26.7-32.3s12.1-23.9,27.4-23.9
			S823.9,323.4,823.9,338.7z"/>
		<path class="st13" d="M117.4,324.7c0,20.4-18,43.1-38.4,43.1s-35.6-22.6-35.6-43.1s16.1-31.8,36.5-31.8S117.4,304.3,117.4,324.7z"
			/>
	</g>
	<g id="Winterbike_1_">
		<g id="weels_4_">
			<g>
				<g>
					<polygon class="st3" points="470,383.6 463.1,428.8 476.9,428.8 					"/>
					<polygon class="st3" points="470,385 476.9,339.8 463.1,339.8 					"/>
					<g>
						<polygon class="st3" points="469.3,384.3 514.5,391.2 514.5,377.4 						"/>
						<polygon class="st3" points="470.7,384.3 425.5,377.4 425.5,391.2 						"/>
					</g>
				</g>
				<g>
					<polygon class="st3" points="470.5,383.8 433.7,410.9 443.4,420.6 					"/>
					<polygon class="st3" points="469.5,384.8 506.3,357.7 496.6,348 					"/>
					<g>
						<polygon class="st3" points="469.5,383.8 496.6,420.6 506.3,410.9 						"/>
						<polygon class="st3" points="470.5,384.8 443.4,348 433.7,357.7 						"/>
					</g>
				</g>
			</g>
			<g>
				<g>
					<polygon class="st3" points="612.7,383.6 605.8,428.8 619.5,428.8 					"/>
					<polygon class="st3" points="612.7,385 619.5,339.8 605.8,339.8 					"/>
					<g>
						<polygon class="st3" points="611.9,384.3 657.1,391.2 657.1,377.4 						"/>
						<polygon class="st3" points="613.4,384.3 568.2,377.4 568.2,391.2 						"/>
					</g>
				</g>
				<g>
					<polygon class="st3" points="613.2,383.8 576.4,410.9 586.1,420.6 					"/>
					<polygon class="st3" points="612.2,384.8 649,357.7 639.3,348 					"/>
					<g>
						<polygon class="st3" points="612.2,383.8 639.3,420.6 649,410.9 						"/>
						<polygon class="st3" points="613.2,384.8 586.1,348 576.4,357.7 						"/>
					</g>
				</g>
			</g>
		</g>
		<path class="st4" d="M609.2,294l-32.7,44.8l-10.8,56.3l-11.2,0.8l5.2-63c0.2-2.8,1-5.6,2.4-8.1l24.3-45.5L609.2,294z"/>
		<path class="st5" d="M561.6,403.5h-17c-1.3,0-2.3-1-2.3-2.3l0,0c0-1.3,1-2.3,2.3-2.3h17c1.3,0,2.3,1,2.3,2.3l0,0
			C563.9,402.5,562.9,403.5,561.6,403.5z"/>
		<path class="st3" d="M553.4,388c0,0-15.5,2.9-19.5,5.1c-1.2,0.7-2,1.6-2.4,2.5c-1,1.9,0.8,4.3,3.3,4.4c5.2,0.4,12.7,0.2,22.5,0.4
			c4.9,0.1,11.6,0.9,12.8-0.3c2.5-2.6-2.7-12.3-2.7-12.3L553.4,388z"/>
		<g>
			<circle class="st6" cx="541.7" cy="382.4" r="15.9"/>
			<circle class="st5" cx="541.7" cy="382.4" r="12.9"/>
		</g>
		<g>
			<circle class="st7" cx="470.2" cy="383.3" r="45.2"/>
			<circle class="st6" cx="470.2" cy="383.3" r="4.7"/>
		</g>
		<g>
			<path class="st6" d="M470.2,426.3c-23.7,0-43-19.3-43-43s19.3-43,43-43c23.7,0,43,19.3,43,43S493.9,426.3,470.2,426.3z
				 M470.2,344.4c-21.4,0-38.9,17.4-38.9,38.9c0,21.4,17.4,38.9,38.9,38.9s38.9-17.4,38.9-38.9C509,361.9,491.6,344.4,470.2,344.4z"
				/>
		</g>
		<g>
			<circle class="st7" cx="612.3" cy="383.3" r="45.2"/>
			<circle class="st6" cx="612.3" cy="383.3" r="4.7"/>
			<g>
				<path class="st6" d="M612,426.3c-23.7,0-43-19.3-43-43s19.3-43,43-43c23.7,0,43,19.3,43,43S635.7,426.3,612,426.3z M612,344.4
					c-21.4,0-38.9,17.4-38.9,38.9c0,21.4,17.4,38.9,38.9,38.9s38.9-17.4,38.9-38.9C650.9,361.9,633.5,344.4,612,344.4z"/>
			</g>
		</g>
		<path class="st6" d="M469.8,384.9c-0.2,0-0.3,0-0.5-0.1c-1.1-0.3-1.7-1.3-1.5-2.4l30.5-114.6c0.3-1.1,1.3-1.8,2.4-1.5
			c1.1,0.3,1.7,1.3,1.5,2.4l-30.5,114.6C471.6,384.3,470.7,384.9,469.8,384.9z"/>
		<path class="st6" d="M543.1,384.3c-0.3,0-0.7-0.1-1-0.3c-0.9-0.6-1.2-1.8-0.6-2.7l46.4-71.8c0.6-0.9,1.8-1.2,2.7-0.6
			c0.9,0.6,1.2,1.8,0.6,2.7l-46.4,71.8C544.4,384,543.7,384.3,543.1,384.3z"/>
		<path class="st5" d="M571.7,304.3c0.7-5.1,5.1-4.4,17.4-3.6c12.3,0.7,11-5.1,20.3-3.6c9.4,1.5,3.6,10.7-9.4,13.4
			C590.9,312.4,570.9,309.4,571.7,304.3z"/>
		<path class="st6" d="M584.4,320.2c-0.1,0-0.2,0-0.4,0l-93.6-5.9c-1.1-0.1-1.9-1-1.9-2.1c0.1-1.1,1-1.9,2.1-1.9l93.6,5.9
			c1.1,0.1,1.9,1,1.9,2.1C586.1,319.3,585.4,320.1,584.4,320.2z"/>
		<path class="st6" d="M612.7,385.5C612.7,385.5,612.7,385.5,612.7,385.5l-71.2-0.8c-0.5,0-1-0.2-1.4-0.6l-52-67.4
			c-0.7-0.8-0.7-2,0.1-2.8s2-0.7,2.8,0.1l51.4,66.8l67.3,0.8l-26.8-63.4c-0.4-1,0-2.1,1-2.6c1-0.4,2.1,0,2.6,1l28,66.2
			c0.3,0.6,0.2,1.3-0.2,1.8C613.9,385.2,613.3,385.5,612.7,385.5z"/>
		<g>
			<path class="st8" d="M555.2,167.2c-6.7,1.8-5.9,7.9-4.4,16.1c0.2,1.3,1.2,3.3,1,4.6L550,192c-0.1,0.8,0.5,1.5,1.3,1.4l2-0.4
				c2.2,4.7,4.5,6.3,7.3,6.2c7.9-0.4,20.5-14.5,17.9-24.2C576,165.4,562.8,165.1,555.2,167.2z"/>
		</g>
		<path class="st3" d="M572.7,204.5c0,0,18.3,6.8,25.2,36.1s11.1,37,11.1,37l-31.9-1.6c0,0-5.2-12.1-14.2-24.2
			c-13.7-18.6-0.1-40.2,1.4-44.5C567.9,197.3,572.7,204.5,572.7,204.5z"/>
		<path class="st8" d="M561.2,196.3c0,0,9.5-0.7,5,7.2c-1.8,3.2,9.4,1.6,9.4,1.6s-0.1-2.1,2.1-16.3L561.2,196.3z"/>
		<path class="st8" d="M516.7,261.4l-12-1.5c-2.1-0.3-4.1,0.6-5.3,2.3l-2.5,3.2c-0.8,1.1-0.6,2.6,0.5,3.3l6.2,4.2l7.8-4.8
			L516.7,261.4z"/>
		<path class="st4" d="M574.1,218.6c-7.8-3.4-19.7,30.5-27.2,35.4c-7.4,4.8-36.5,7.1-36.5,7.1l0.5,5.5c0,0,37.9,2,44.2-2.5
			S586.1,223.8,574.1,218.6z"/>
		<circle class="st6" cx="505.9" cy="272.2" r="4.1"/>
		<path class="st4" d="M577.4,275.6c0,0-44.3,16.5-45.5,21.1c-1.2,4.5,14.6,59.8,14.6,59.8l12.2-4.9c0,0-8.8-39.7-7.1-43.4
			c1.7-3.7,46.5-2.2,56-11.4s-1-25.3-1-25.3L577.4,275.6z"/>
		<path class="st9" d="M564.2,164.4c0,0-11.6-16.9,6-10.6c8.7,3.1,3.8,11.7-1.3,11.7c-3.4,0-5-1-5-1"/>
		<path class="st6" d="M462.6,282.6l32.5,6.4l-11.1,40.7l-12.9-2.1c-5.3-0.9-9.2-6.2-9.1-12.6L462.6,282.6z"/>
		<path class="st5" d="M560,370.4l-15.8,6.1c-1.2,0.5-2.5-0.1-3-1.3l0,0c-0.5-1.2,0.1-2.5,1.3-3l15.8-6.1c1.2-0.5,2.5,0.1,3,1.3l0,0
			C561.7,368.6,561.1,370,560,370.4z"/>
		<path class="st3" d="M546.5,356.2c0,0-14.4,9.2-17.6,13.1c0,0-0.1,0.1-0.1,0.1c-2.6,3.3,0.7,7.9,4.7,6.8
			c5.3-1.5,13.5-4.6,20.1-7.5c2-0.9,10-3.4,10.8-5.2c1.7-3.8-5.7-12.1-5.7-12.1L546.5,356.2z"/>
		<path class="st9" d="M558.9,160.9c0,0,10.3-4.6,21.3,11.1c11,15.7,40.4-25.8,54.9-1.1c35.4-1.5,34.9,19.4,24.4,25.9
			c17.5,12.7-10.7,43-38.6,27.2c-13.7,14.7-37.3,9.1-44.9-17.8C548.3,183,565.2,173,556.6,179c-3.8,2.8-6.6,2.3-8.4,1.2
			c-2-1.2-3-3.5-2.9-5.8C545.5,170.4,550,162.3,558.9,160.9z"/>
	</g>
</g>
<g id="summer">
	<g id="Sbg">
		<polygon class="st17" points="1000.1,391.6 0.4,391.6 0,0 1000.1,0.3 		"/>
		<path class="st12" d="M799.7,343.2c0-116.2-94.2-210.4-210.4-210.4S378.9,227,378.9,343.2c0,44.2,9.2,75.4,32.4,109.2h356.1
			C790.6,418.6,799.7,387.3,799.7,343.2z"/>
		<path class="st18" d="M0,239.1c0,0,82.4-4.3,212.6,33.3c212.7,61.5,440.8,69.9,658.1,23c49.4-10.7,89.4-14.6,127.9-4.2
			c0,62.1,1.8,90,1.1,160.8c0,1.3-55.2,0.2-78.2,0.4c-185.9,2.1-741.3-0.3-869.2-1.4C38.2,450.9,0,452.5,0,452.5L0,239.1z"/>
		<path class="st19" d="M0.5,382.1c0,0,380.1-12.8,999.6,1.8v68.6L0,452.5L0.5,382.1z"/>
	</g>
	<g id="leaves_1_">
		<path class="st20" d="M982,346.9c0,16.5-9.6,23.8-21.5,23.8s-21.5-7.4-21.5-23.8c0-16.5,9.6-49,21.5-49S982,330.5,982,346.9z"/>
		<path class="st20" d="M309.9,346.5c0,14-8.2,20.3-18.3,20.3c-10.1,0-18.3-6.3-18.3-20.3c0-14,8.2-41.7,18.3-41.7
			C301.7,304.8,309.9,332.5,309.9,346.5z"/>
		<path class="st21" d="M351,334.1c0,19.7-11.5,28.5-25.7,28.5c-14.2,0-25.7-8.8-25.7-28.5s11.5-58.6,25.7-58.6
			C339.5,275.5,351,314.4,351,334.1z"/>
		<path class="st22" d="M803,325.4c-0.3,20.4-18.6,42.8-39,42.5c-20.4-0.3-35.2-23.2-34.9-43.6c0.3-20.4,16.6-31.6,37-31.3
			C786.5,293.3,803.3,305,803,325.4z"/>
		<path class="st21" d="M823.9,338.7c0,15.3-13.5,32.3-28.8,32.3c-15.3,0-26.7-17-26.7-32.3s12.1-23.9,27.4-23.9
			S823.9,323.4,823.9,338.7z"/>
		<path class="st22" d="M117.4,324.7c0,20.4-18,43.1-38.4,43.1s-35.6-22.6-35.6-43.1s16.1-31.8,36.5-31.8S117.4,304.3,117.4,324.7z"
			/>
	</g>
	<g id="fruit">
		<circle class="st23" cx="55.6" cy="346.4" r="2.5"/>
		<circle class="st23" cx="65.1" cy="356.1" r="2.5"/>
		<circle class="st23" cx="93.8" cy="358.3" r="2.5"/>
		<circle class="st23" cx="103.3" cy="351.7" r="2.5"/>
		<circle class="st23" cx="83.9" cy="350.8" r="2.5"/>
		<circle class="st23" cx="75.2" cy="340" r="2.5"/>
		<circle class="st23" cx="743.7" cy="351.9" r="2.5"/>
		<circle class="st23" cx="754.7" cy="358.1" r="2.5"/>
		<circle class="st23" cx="782.3" cy="359.4" r="2.5"/>
		<circle class="st23" cx="804.6" cy="363.9" r="2.5"/>
		<circle class="st23" cx="767.8" cy="353.9" r="2.5"/>
		<circle class="st23" cx="761.6" cy="341.5" r="2.5"/>
		<circle class="st23" cx="813" cy="357" r="2.5"/>
		<circle class="st23" cx="799.1" cy="354.3" r="2.5"/>
	</g>
	<g id="springbike_1_">
		<g id="weels_3_">
			<g>
				<g>
					<polygon class="st3" points="470,383.6 463.1,428.8 476.9,428.8 					"/>
					<polygon class="st3" points="470,385 476.9,339.8 463.1,339.8 					"/>
					<g>
						<polygon class="st3" points="469.3,384.3 514.5,391.2 514.5,377.4 						"/>
						<polygon class="st3" points="470.7,384.3 425.5,377.4 425.5,391.2 						"/>
					</g>
				</g>
				<g>
					<polygon class="st3" points="470.5,383.8 433.7,410.9 443.4,420.6 					"/>
					<polygon class="st3" points="469.5,384.8 506.3,357.7 496.6,348 					"/>
					<g>
						<polygon class="st3" points="469.5,383.8 496.6,420.6 506.3,410.9 						"/>
						<polygon class="st3" points="470.5,384.8 443.4,348 433.7,357.7 						"/>
					</g>
				</g>
			</g>
			<g>
				<g>
					<polygon class="st3" points="612.7,383.6 605.8,428.8 619.5,428.8 					"/>
					<polygon class="st3" points="612.7,385 619.5,339.8 605.8,339.8 					"/>
					<g>
						<polygon class="st3" points="611.9,384.3 657.1,391.2 657.1,377.4 						"/>
						<polygon class="st3" points="613.4,384.3 568.2,377.4 568.2,391.2 						"/>
					</g>
				</g>
				<g>
					<polygon class="st3" points="613.2,383.8 576.4,410.9 586.1,420.6 					"/>
					<polygon class="st3" points="612.2,384.8 649,357.7 639.3,348 					"/>
					<g>
						<polygon class="st3" points="612.2,383.8 639.3,420.6 649,410.9 						"/>
						<polygon class="st3" points="613.2,384.8 586.1,348 576.4,357.7 						"/>
					</g>
				</g>
			</g>
		</g>
		<path class="st4" d="M609.2,294l-32.7,44.8l-10.8,56.3l-11.2,0.8l5.2-63c0.2-2.8,1-5.6,2.4-8.1l24.3-45.5L609.2,294z"/>
		<path class="st5" d="M561.6,403.5h-17c-1.3,0-2.3-1-2.3-2.3l0,0c0-1.3,1-2.3,2.3-2.3h17c1.3,0,2.3,1,2.3,2.3l0,0
			C563.9,402.5,562.9,403.5,561.6,403.5z"/>
		<path class="st3" d="M553.4,388c0,0-15.5,2.9-19.5,5.1c-1.2,0.7-2,1.6-2.4,2.5c-1,1.9,0.8,4.3,3.3,4.4c5.2,0.4,12.7,0.2,22.5,0.4
			c4.9,0.1,11.6,0.9,12.8-0.3c2.5-2.6-2.7-12.3-2.7-12.3L553.4,388z"/>
		<g>
			<circle class="st6" cx="541.7" cy="382.4" r="15.9"/>
			<circle class="st5" cx="541.7" cy="382.4" r="12.9"/>
		</g>
		<g>
			<circle class="st7" cx="470.2" cy="383.3" r="45.2"/>
			<circle class="st6" cx="470.2" cy="383.3" r="4.7"/>
		</g>
		<g>
			<path class="st6" d="M470.2,426.3c-23.7,0-43-19.3-43-43s19.3-43,43-43c23.7,0,43,19.3,43,43S493.9,426.3,470.2,426.3z
				 M470.2,344.4c-21.4,0-38.9,17.4-38.9,38.9c0,21.4,17.4,38.9,38.9,38.9s38.9-17.4,38.9-38.9C509,361.9,491.6,344.4,470.2,344.4z"
				/>
		</g>
		<g>
			<circle class="st7" cx="612.3" cy="383.3" r="45.2"/>
			<circle class="st6" cx="612.3" cy="383.3" r="4.7"/>
			<g>
				<path class="st6" d="M612,426.3c-23.7,0-43-19.3-43-43s19.3-43,43-43c23.7,0,43,19.3,43,43S635.7,426.3,612,426.3z M612,344.4
					c-21.4,0-38.9,17.4-38.9,38.9c0,21.4,17.4,38.9,38.9,38.9s38.9-17.4,38.9-38.9C650.9,361.9,633.5,344.4,612,344.4z"/>
			</g>
		</g>
		<path class="st6" d="M469.8,384.9c-0.2,0-0.3,0-0.5-0.1c-1.1-0.3-1.7-1.3-1.5-2.4l30.5-114.6c0.3-1.1,1.3-1.8,2.4-1.5
			c1.1,0.3,1.7,1.3,1.5,2.4l-30.5,114.6C471.6,384.3,470.7,384.9,469.8,384.9z"/>
		<path class="st6" d="M543.1,384.3c-0.3,0-0.7-0.1-1-0.3c-0.9-0.6-1.2-1.8-0.6-2.7l46.4-71.8c0.6-0.9,1.8-1.2,2.7-0.6
			c0.9,0.6,1.2,1.8,0.6,2.7l-46.4,71.8C544.4,384,543.7,384.3,543.1,384.3z"/>
		<path class="st5" d="M571.7,304.3c0.7-5.1,5.1-4.4,17.4-3.6c12.3,0.7,11-5.1,20.3-3.6c9.4,1.5,3.6,10.7-9.4,13.4
			C590.9,312.4,570.9,309.4,571.7,304.3z"/>
		<path class="st6" d="M584.4,320.2c-0.1,0-0.2,0-0.4,0l-93.6-5.9c-1.1-0.1-1.9-1-1.9-2.1c0.1-1.1,1-1.9,2.1-1.9l93.6,5.9
			c1.1,0.1,1.9,1,1.9,2.1C586.1,319.3,585.4,320.1,584.4,320.2z"/>
		<path class="st6" d="M612.7,385.5C612.7,385.5,612.7,385.5,612.7,385.5l-71.2-0.8c-0.5,0-1-0.2-1.4-0.6l-52-67.4
			c-0.7-0.8-0.7-2,0.1-2.8s2-0.7,2.8,0.1l51.4,66.8l67.3,0.8l-26.8-63.4c-0.4-1,0-2.1,1-2.6c1-0.4,2.1,0,2.6,1l28,66.2
			c0.3,0.6,0.2,1.3-0.2,1.8C613.9,385.2,613.3,385.5,612.7,385.5z"/>
		<g>
			<path class="st8" d="M555.2,167.2c-6.7,1.8-5.9,7.9-4.4,16.1c0.2,1.3,1.2,3.3,1,4.6L550,192c-0.1,0.8,0.5,1.5,1.3,1.4l2-0.4
				c2.2,4.7,4.5,6.3,7.3,6.2c7.9-0.4,20.5-14.5,17.9-24.2C576,165.4,562.8,165.1,555.2,167.2z"/>
		</g>
		<path class="st3" d="M572.7,204.5c0,0,18.3,6.8,25.2,36.1s11.1,37,11.1,37l-31.9-1.6c0,0-3-14.1-14.2-24.2
			c-13.3-12-4.7-34.8-1.9-38.5C564.5,208.6,572.7,204.5,572.7,204.5z"/>
		<path class="st8" d="M561.2,196.3c0,0,9.7,2.9,0.2,16c-2.2,3,14.2-7.2,14.2-7.2s-4.8-1.9-2.5-16.2L561.2,196.3z"/>
		<path class="st8" d="M574.1,218.6c-7.8-3.4-19.7,30.5-27.2,35.4c-7.4,4.8-36.5,7.1-36.5,7.1l0.5,5.5c0,0,37.9,2,44.2-2.5
			S586.1,223.8,574.1,218.6z"/>
		<path class="st8" d="M516.7,261.4l-12-1.5c-2.1-0.3-4.1,0.6-5.3,2.3l-2.5,3.2c-0.8,1.1-0.6,2.6,0.5,3.3l6.2,4.2l7.8-4.8
			L516.7,261.4z"/>
		<circle class="st6" cx="505.9" cy="272.2" r="4.1"/>
		<path class="st4" d="M577.4,275.6c0,0-44.3,16.5-45.5,21.1c-1.2,4.5,14.6,59.8,14.6,59.8l12.2-4.9c0,0-8.8-39.7-7.1-43.4
			c1.7-3.7,46.5-2.2,56-11.4s-1-25.3-1-25.3L577.4,275.6z"/>
		<path class="st9" d="M564.2,164.4c0,0-11.6-16.9,6-10.6c8.7,3.1,3.8,11.7-1.3,11.7c-3.4,0-5-1-5-1"/>
		<path class="st6" d="M462.6,282.6l32.5,6.4l-11.1,40.7l-12.9-2.1c-5.3-0.9-9.2-6.2-9.1-12.6L462.6,282.6z"/>
		<path class="st5" d="M560,370.4l-15.8,6.1c-1.2,0.5-2.5-0.1-3-1.3l0,0c-0.5-1.2,0.1-2.5,1.3-3l15.8-6.1c1.2-0.5,2.5,0.1,3,1.3l0,0
			C561.7,368.6,561.1,370,560,370.4z"/>
		<path class="st3" d="M546.5,356.2c0,0-14.4,9.2-17.6,13.1c0,0-0.1,0.1-0.1,0.1c-2.6,3.3,0.7,7.9,4.7,6.8
			c5.3-1.5,13.5-4.6,20.1-7.5c2-0.9,10-3.4,10.8-5.2c1.7-3.8-5.7-12.1-5.7-12.1L546.5,356.2z"/>
		<path class="st9" d="M558.9,160.9c0,0,10.3-4.6,21.3,11.1c11,15.7,40.4-25.8,54.9-1.1c35.4-1.5,34.9,19.4,24.4,25.9
			c17.5,12.7-10.7,43-38.6,27.2c-13.7,14.7-37.3,9.1-44.9-17.8C548.3,183,565.2,173,556.6,179c-3.8,2.8-6.6,2.3-8.4,1.2
			c-2-1.2-3-3.5-2.9-5.8C545.5,170.4,550,162.3,558.9,160.9z"/>
	</g>
</g>
<g id="spring">
	<g id="bg">
		<polygon class="st24" points="1000,391.9 0,391.8 0,0 999.8,0 		"/>
		<path class="st25" d="M0,239.1c0,0,80.6-4.3,211.3,33.6c213.4,61.9,442.2,70.4,660.3,23.2c49.6-10.7,89.7-14.7,128.3-4.3
			c0,62.6,0.2,89.6,0.2,160.3c0,1-69.1,0.1-83,0c-171.2-1.4-781.4,1-889.6,0c-8.8-0.1-27.5,0.5-27.5,0.5L0,239.1z"/>
		<path class="st26" d="M0,382.3c0,0,378.6-13.2,1000.2,1.7l-0.2,68.7L0,452.5L0,382.3z"/>
	</g>
	<g id="leaves">
		<path class="st20" d="M982,346.9c0,16.5-9.6,23.8-21.5,23.8s-21.5-7.4-21.5-23.8c0-16.5,9.6-49,21.5-49S982,330.5,982,346.9z"/>
		<path class="st20" d="M309.9,346.5c0,14-8.2,20.3-18.3,20.3c-10.1,0-18.3-6.3-18.3-20.3c0-14,8.2-41.7,18.3-41.7
			C301.7,304.8,309.9,332.5,309.9,346.5z"/>
		<path class="st21" d="M351,334.1c0,19.7-11.5,28.5-25.7,28.5c-14.2,0-25.7-8.8-25.7-28.5s11.5-58.6,25.7-58.6
			C339.5,275.5,351,314.4,351,334.1z"/>
		<path class="st22" d="M803,325.4c-0.3,20.4-18.6,42.8-39,42.5c-20.4-0.3-35.2-23.2-34.9-43.6c0.3-20.4,16.6-31.6,37-31.3
			C786.5,293.3,803.3,305,803,325.4z"/>
		<path class="st21" d="M823.9,338.7c0,15.3-13.5,32.3-28.8,32.3c-15.3,0-26.7-17-26.7-32.3s12.1-23.9,27.4-23.9
			S823.9,323.4,823.9,338.7z"/>
		<path class="st22" d="M117.4,324.7c0,20.4-18,43.1-38.4,43.1s-35.6-22.6-35.6-43.1s16.1-31.8,36.5-31.8S117.4,304.3,117.4,324.7z"
			/>
	</g>
	<g id="flowers">
		<g>
			<g>
				<path class="st3" d="M60.4,338.6c0-0.2,0-0.3,0.1-0.5c0.1-1.4-1.1-2.7-2.6-2.3c-0.6,0.2-1,0.5-1.2,1c-0.2-0.2-0.4-0.4-0.7-0.5
					c-1.2-0.5-2.8,0.3-2.9,1.7c-0.1,0.8,0.2,1.4,0.7,2c0.1,0.1,0.2,0.2,0.3,0.3c-0.3,0-0.6,0-0.9,0.1c-1.3,0.3-2,1.5-1.7,2.8
					c0.3,1.1,1.6,1.6,2.6,1.5c0.4-0.1,0.9-0.2,1.4-0.5c0,0.3,0,0.5,0.1,0.8c0.3,1.4,1.9,1.9,3.2,1.3c1.3-0.6,1.7-1.8,1.4-3.1
					c0-0.1,0-0.1-0.1-0.2c0.4,0.1,0.9,0.2,1.2,0.2c1.4,0,2.7-1.1,2.5-2.6C63.7,338.9,61.9,338.3,60.4,338.6z"/>
			</g>
			<path class="st27" d="M57.1,339.6c1.8-0.4,2.4,2.4,0.6,2.8C55.9,342.8,55.3,340,57.1,339.6z"/>
		</g>
		<g>
			<g>
				<path class="st3" d="M744.8,337.5c0-0.2,0-0.3,0-0.5c0.1-1.4-1.2-2.7-2.6-2.3c-0.6,0.2-0.9,0.6-1.2,1c-0.2-0.2-0.4-0.4-0.7-0.5
					c-1.2-0.5-2.8,0.4-2.9,1.8c-0.1,0.8,0.2,1.4,0.7,2c0.1,0.1,0.2,0.2,0.3,0.3c-0.3,0-0.6,0-0.9,0.1c-1.3,0.3-1.9,1.6-1.6,2.8
					c0.3,1.1,1.6,1.6,2.6,1.4c0.4-0.1,0.9-0.3,1.4-0.5c0,0.3,0,0.5,0.1,0.8c0.4,1.4,2,1.8,3.2,1.3c1.2-0.6,1.7-1.9,1.3-3.2
					c0-0.1,0-0.1-0.1-0.2c0.4,0.1,0.9,0.2,1.3,0.2c1.4-0.1,2.6-1.2,2.4-2.6C748,337.6,746.2,337.1,744.8,337.5z"/>
			</g>
			<path class="st27" d="M741.5,338.5c1.8-0.4,2.5,2.3,0.7,2.8C740.4,341.7,739.7,338.9,741.5,338.5z"/>
		</g>
		<g>
			<g>
				<path class="st3" d="M69.1,327.6c0-0.1,0.1-0.2,0.1-0.3c0.3-0.9-0.3-1.9-1.3-1.8c-0.4,0-0.7,0.2-0.9,0.5
					c-0.1-0.2-0.2-0.3-0.3-0.4c-0.7-0.5-1.8-0.2-2.1,0.7c-0.2,0.5-0.1,0.9,0.1,1.3c0,0.1,0.1,0.2,0.2,0.2c-0.2-0.1-0.4-0.1-0.5-0.1
					c-0.8,0-1.4,0.7-1.4,1.5c0,0.8,0.8,1.2,1.4,1.3c0.3,0,0.6,0,1-0.1c0,0.2-0.1,0.3-0.1,0.5c0,0.9,1,1.4,1.8,1.3
					c0.9-0.2,1.3-0.9,1.3-1.8c0,0,0-0.1,0-0.1c0.2,0.1,0.5,0.3,0.8,0.3c0.9,0.2,1.8-0.3,1.9-1.3C71,328.2,70,327.6,69.1,327.6z"/>
			</g>
			<path class="st27" d="M66.8,327.7c1.2,0,1.2,1.8,0,1.8C65.7,329.5,65.7,327.7,66.8,327.7z"/>
		</g>
		<g>
			<g>
				<path class="st3" d="M103.2,330.1c0.1-0.2,0.2-0.4,0.2-0.6c0.7-1.8-0.5-3.9-2.5-4c-0.8,0-1.4,0.3-1.9,0.9
					c-0.1-0.4-0.3-0.7-0.7-0.9c-1.4-1.1-3.7-0.6-4.4,1.1c-0.4,1-0.3,1.9,0.1,2.8c0.1,0.2,0.2,0.3,0.3,0.5c-0.4-0.1-0.7-0.2-1.1-0.2
					c-1.7-0.1-3.1,1.3-3.2,2.9c-0.1,1.6,1.4,2.7,2.8,2.9c0.5,0.1,1.3,0.1,2-0.1c-0.1,0.4-0.2,0.7-0.2,1.1c-0.1,1.9,1.8,3.1,3.6,2.9
					c1.8-0.3,2.9-1.7,3-3.5c0-0.1,0-0.2,0-0.3c0.5,0.3,1,0.6,1.5,0.7c1.8,0.5,3.9-0.4,4.2-2.4C107.3,331.6,105.2,330.2,103.2,330.1z
					"/>
			</g>
			<path class="st27" d="M98.5,330.1c2.5,0.2,2.2,4-0.2,3.8C95.8,333.7,96.1,329.9,98.5,330.1z"/>
		</g>
		<g>
			<g>
				<path class="st3" d="M80.3,316c0.1-0.1,0.2-0.1,0.2-0.2c0.7-0.6,0.7-1.7-0.1-2.2c-0.3-0.2-0.7-0.2-1-0.1c0-0.2,0-0.4-0.1-0.5
					c-0.3-0.8-1.4-1.1-2.1-0.6c-0.4,0.3-0.6,0.7-0.6,1.2c0,0.1,0,0.2,0,0.3c-0.1-0.1-0.3-0.3-0.4-0.4c-0.7-0.4-1.6-0.2-2,0.5
					c-0.4,0.6,0,1.4,0.5,1.8c0.2,0.2,0.5,0.3,0.9,0.4c-0.1,0.1-0.2,0.3-0.3,0.4c-0.5,0.8,0,1.7,0.8,2c0.8,0.3,1.6,0,2.1-0.8
					c0,0,0-0.1,0.1-0.1c0.1,0.3,0.3,0.5,0.5,0.7c0.6,0.6,1.7,0.7,2.3,0C81.6,317.6,81.1,316.5,80.3,316z"/>
			</g>
			<path class="st27" d="M78.3,314.9c1,0.6,0,2.2-1,1.6C76.4,315.8,77.4,314.3,78.3,314.9z"/>
		</g>
		<g>
			<g>
				<path class="st3" d="M797.2,330.6c0.1-0.1,0.2-0.2,0.3-0.4c0.9-1.1,0.7-2.9-0.7-3.4c-0.6-0.2-1.1-0.1-1.6,0.1
					c0-0.3-0.1-0.6-0.2-0.8c-0.7-1.1-2.4-1.4-3.4-0.4c-0.5,0.6-0.7,1.2-0.6,2c0,0.1,0,0.3,0.1,0.4c-0.2-0.2-0.5-0.3-0.7-0.4
					c-1.2-0.5-2.5,0.1-3,1.2c-0.5,1.1,0.3,2.2,1.2,2.7c0.4,0.2,0.9,0.4,1.4,0.4c-0.2,0.2-0.3,0.5-0.4,0.7c-0.6,1.3,0.5,2.7,1.8,2.9
					c1.3,0.3,2.5-0.5,3-1.7c0-0.1,0-0.1,0.1-0.2c0.2,0.4,0.6,0.7,0.9,0.9c1.1,0.8,2.8,0.7,3.5-0.6
					C799.7,332.7,798.6,331.2,797.2,330.6z"/>
			</g>
			<path class="st27" d="M794,329.4c1.7,0.7,0.5,3.4-1.1,2.6C791.2,331.3,792.3,328.7,794,329.4z"/>
		</g>
		<g>
			<g>
				<path class="st3" d="M780.3,348.4c0-0.1,0-0.3,0-0.4c0-1.2-1.3-2.2-2.5-1.7c-0.5,0.2-0.8,0.5-1,0.9c-0.2-0.2-0.4-0.3-0.6-0.4
					c-1.1-0.3-2.4,0.5-2.4,1.6c0,0.6,0.3,1.2,0.8,1.6c0.1,0.1,0.2,0.2,0.3,0.2c-0.2,0-0.5,0.1-0.7,0.1c-1.1,0.3-1.6,1.4-1.2,2.4
					c0.3,0.9,1.5,1.2,2.4,1c0.3-0.1,0.8-0.3,1.2-0.5c0,0.2,0.1,0.5,0.1,0.7c0.4,1.1,1.9,1.4,2.9,0.9c1-0.6,1.3-1.7,0.9-2.7
					c0,0,0-0.1-0.1-0.2c0.4,0.1,0.8,0.1,1.1,0.1c1.2-0.1,2.2-1.1,1.9-2.3C783.1,348.4,781.5,348,780.3,348.4z"/>
			</g>
			<path class="st27" d="M777.5,349.4c1.5-0.5,2.4,1.8,0.8,2.3C776.7,352.2,775.9,349.9,777.5,349.4z"/>
		</g>
		<g>
			<g>
				<path class="st3" d="M811.2,345.1c0.2,0,0.3-0.1,0.5-0.1c1.3-0.4,2.1-2.1,1.1-3.3c-0.4-0.5-0.9-0.7-1.4-0.7
					c0.1-0.2,0.2-0.5,0.2-0.8c0-1.3-1.4-2.4-2.7-2.1c-0.7,0.2-1.2,0.7-1.6,1.4c-0.1,0.1-0.1,0.3-0.2,0.4c-0.1-0.3-0.2-0.5-0.4-0.8
					c-0.7-1.1-2.2-1.2-3.2-0.5c-1,0.7-0.9,2.1-0.3,3c0.2,0.4,0.6,0.8,1,1.1c-0.3,0.1-0.5,0.2-0.7,0.4c-1.2,0.8-1,2.5,0,3.4
					c1,0.9,2.4,0.9,3.4,0.1c0.1,0,0.1-0.1,0.2-0.1c0,0.4,0.1,0.9,0.3,1.2c0.6,1.3,2,2,3.3,1.3C812.2,348.1,812.1,346.3,811.2,345.1z
					"/>
			</g>
			<path class="st27" d="M809,342.3c1.1,1.5-1.3,3.2-2.3,1.7C805.7,342.5,808,340.8,809,342.3z"/>
		</g>
		<g>
			<g>
				<path class="st3" d="M755.5,326.4c0.1-0.1,0.2-0.3,0.2-0.4c0.7-1.3,0-2.9-1.5-3.1c-0.6-0.1-1.1,0.1-1.5,0.5
					c-0.1-0.3-0.2-0.5-0.4-0.7c-0.9-0.9-2.7-0.8-3.4,0.4c-0.4,0.7-0.4,1.4-0.2,2.1c0,0.1,0.1,0.3,0.2,0.4c-0.2-0.1-0.5-0.2-0.8-0.3
					c-1.3-0.2-2.4,0.7-2.6,1.9c-0.2,1.2,0.8,2.1,1.8,2.4c0.4,0.1,1,0.2,1.5,0.1c-0.1,0.2-0.2,0.5-0.2,0.8c-0.2,1.4,1.1,2.5,2.4,2.4
					c1.4,0,2.3-1,2.5-2.3c0-0.1,0-0.1,0-0.2c0.3,0.3,0.7,0.5,1.1,0.7c1.3,0.5,2.9,0,3.3-1.4C758.3,327.9,756.9,326.7,755.5,326.4z"
					/>
			</g>
			<path class="st27" d="M752,326c1.8,0.3,1.3,3.1-0.5,2.8C749.7,328.5,750.2,325.7,752,326z"/>
		</g>
	</g>
	<g id="_x33_flowers">
		<g>
			<path class="st28" d="M471.8,291.1h2.2c0.5-7.4,0.7-15.2-1-22.1c-0.1-0.3-0.6-0.3-0.6,0.1C473,276.4,472,283.8,471.8,291.1z"/>
			<g>
				<path class="st3" d="M478.2,265.9c0.2-0.2,0.4-0.4,0.7-0.6c0,0,0,0,0,0c0.4-0.2,0.8-0.5,1.1-0.9c0.9-1.3,0.4-3.2-1-4
					c-1.5-0.8-3.1-0.2-4.1,1c-0.5,0.5-1,1.1-1.5,1.6c-0.3-2.1-0.5-5-2.8-5.6c-2.9-0.8-3.5,2.9-2.8,4.9c0.3,1,0.8,1.9,1.2,2.8
					c-1.7-0.4-3.6-0.4-4.9-0.5c-3.8-0.3-3.7,6.3,0,5.9c1.5-0.2,3-0.3,4.4-0.6c0.2,0,0.5-0.1,0.8-0.2c-1,1.5-2.3,2.8-3.3,4.1
					c-0.8,1.1-1.3,2.9,0,3.9c0.4,0.3,0.7,0.5,1.2,0.7c1.1,0.4,2.7-0.3,3.1-1.3c0.9-1.9,1.9-3.9,2.3-5.9c0.1,0.1,0.1,0.3,0.2,0.4
					c0.9,1.4,1.8,2.7,3.4,3.3c2.4,0.9,4.5-2.2,3.2-4.2c-0.8-1.3-2.4-2.2-3.6-2.9c0,0-0.1,0-0.1-0.1c0.2-0.1,0.4-0.2,0.6-0.3
					C477,267,477.6,266.4,478.2,265.9z"/>
				<path class="st27" d="M472.3,265.2c-2.4,0-2.4,3.7,0,3.7C474.7,268.9,474.7,265.2,472.3,265.2z"/>
			</g>
		</g>
		<g>
			<path class="st28" d="M482.6,291.3h-1.4c-0.4-12.4-0.4-25.5,0.7-37.2c0-0.5,0.4-0.4,0.4,0.1C481.8,266.6,482.4,279,482.6,291.3z"
				/>
			<g>
				<path class="st3" d="M476.8,251.2c-0.2-0.2-0.4-0.3-0.7-0.5c0,0,0,0,0,0c-0.4-0.2-0.8-0.5-1.1-0.8c-0.9-1.1-0.4-2.9,1-3.5
					c1.5-0.7,3.1-0.2,4.1,0.9c0.5,0.5,1,0.9,1.5,1.4c0.3-1.8,0.5-4.4,2.8-5c2.9-0.7,3.5,2.6,2.8,4.3c-0.3,0.9-0.8,1.7-1.2,2.5
					c1.7-0.4,3.6-0.4,4.9-0.5c3.8-0.2,3.7,5.5,0,5.2c-1.5-0.1-3-0.3-4.4-0.5c-0.2,0-0.5-0.1-0.8-0.1c1,1.3,2.3,2.5,3.3,3.7
					c0.8,1,1.3,2.6,0,3.5c-0.4,0.3-0.7,0.4-1.2,0.6c-1.1,0.4-2.7-0.2-3.1-1.1c-0.9-1.7-1.9-3.4-2.3-5.2c-0.1,0.1-0.1,0.2-0.2,0.3
					c-0.9,1.3-1.8,2.4-3.4,2.9c-2.4,0.8-4.5-2-3.2-3.7c0.8-1.1,2.4-1.9,3.6-2.6c0,0,0.1,0,0.1-0.1c-0.2-0.1-0.4-0.2-0.6-0.3
					C478,252.1,477.4,251.6,476.8,251.2z"/>
				<path class="st27" d="M482.6,250.6c2.4,0,2.4,3.3,0,3.3C480.3,253.9,480.3,250.6,482.6,250.6z"/>
			</g>
		</g>
		<g>
			<path class="st28" d="M488.8,290.2h-1.7c-0.4-5.7-0.5-11.8,0.8-17.1c0.1-0.2,0.4-0.2,0.4,0.1
				C487.9,278.8,488.6,284.5,488.8,290.2z"/>
			<g>
				<path class="st3" d="M483.8,270.6c-0.2-0.1-0.3-0.3-0.5-0.4c0,0,0,0,0,0c-0.3-0.2-0.6-0.4-0.8-0.7c-0.7-1-0.3-2.5,0.7-3.1
					c1.1-0.7,2.4-0.1,3.2,0.8c0.4,0.4,0.8,0.8,1.2,1.2c0.2-1.6,0.4-3.9,2.1-4.4c2.3-0.6,2.7,2.3,2.2,3.8c-0.3,0.8-0.6,1.5-0.9,2.2
					c1.3-0.3,2.8-0.3,3.8-0.4c3-0.2,2.9,4.8,0,4.5c-1.1-0.1-2.3-0.2-3.4-0.4c-0.2,0-0.4-0.1-0.6-0.1c0.7,1.1,1.8,2.2,2.5,3.2
					c0.7,0.8,1,2.3,0,3.1c-0.3,0.3-0.6,0.4-0.9,0.5c-0.8,0.3-2.1-0.2-2.4-1c-0.7-1.5-1.5-3-1.8-4.6c-0.1,0.1-0.1,0.2-0.2,0.3
					c-0.7,1.1-1.4,2.1-2.7,2.6c-1.9,0.7-3.5-1.7-2.5-3.3c0.6-1,1.8-1.7,2.8-2.3c0,0,0.1,0,0.1-0.1c-0.2-0.1-0.3-0.2-0.5-0.2
					C484.7,271.5,484.3,271,483.8,270.6z"/>
				<path class="st27" d="M488.4,270.1c1.8,0,1.9,2.9,0,2.9C486.5,273,486.5,270.1,488.4,270.1z"/>
			</g>
		</g>
	</g>
	<g id="springbike">
		<g id="weels_2_">
			<g>
				<g>
					<polygon class="st3" points="470,383.6 463.1,428.8 476.9,428.8 					"/>
					<polygon class="st3" points="470,385 477.2,338.5 462.9,338.4 					"/>
					<g>
						<polygon class="st3" points="469.3,384.3 514.5,391.2 514.5,377.4 						"/>
						<polygon class="st3" points="470.7,384.3 425.5,377.4 425.5,391.2 						"/>
					</g>
				</g>
				<g>
					<polygon class="st3" points="470.5,383.8 433.7,410.9 443.4,420.6 					"/>
					<polygon class="st3" points="469.5,384.8 507.1,357.2 497.5,346.6 					"/>
					<g>
						<polygon class="st3" points="469.5,383.8 496.6,420.6 506.3,410.9 						"/>
						<polygon class="st3" points="470.5,384.8 442.9,347.2 433.2,357.4 						"/>
					</g>
				</g>
			</g>
			<g>
				<g>
					<polygon class="st3" points="612.7,383.6 605.8,428.8 619.5,428.8 					"/>
					<polygon class="st3" points="612.7,385 619.8,338.7 605.6,339 					"/>
					<g>
						<polygon class="st3" points="611.9,384.3 657.1,391.2 657.1,377.4 						"/>
						<polygon class="st3" points="613.4,384.3 568.2,377.4 568.2,391.2 						"/>
					</g>
				</g>
				<g>
					<polygon class="st3" points="613.2,383.8 576.4,410.9 586.1,420.6 					"/>
					<polygon class="st3" points="612.2,384.8 649,357.7 639.3,348 					"/>
					<g>
						<polygon class="st3" points="612.2,383.8 639.3,420.6 649,410.9 						"/>
						<polygon class="st3" points="613.2,384.8 585.2,346.8 575.4,357 						"/>
					</g>
				</g>
			</g>
		</g>
		<path class="st4" d="M609.2,294l-32.7,44.8l-10.8,56.3l-11.2,0.8l5.2-63c0.2-2.8,1-5.6,2.4-8.1l24.3-45.5L609.2,294z"/>
		<path class="st5" d="M561.6,403.5h-17c-1.3,0-2.3-1-2.3-2.3l0,0c0-1.3,1-2.3,2.3-2.3h17c1.3,0,2.3,1,2.3,2.3l0,0
			C563.9,402.5,562.9,403.5,561.6,403.5z"/>
		<path class="st3" d="M553.4,388c0,0-15.5,2.9-19.5,5.1c-1.2,0.7-2,1.6-2.4,2.5c-1,1.9,0.8,4.3,3.3,4.4c5.2,0.4,12.7,0.2,22.5,0.4
			c4.9,0.1,11.6,0.9,12.8-0.3c2.5-2.6-2.7-12.3-2.7-12.3L553.4,388z"/>
		<g>
			<circle class="st6" cx="541.7" cy="382.4" r="15.9"/>
			<circle class="st5" cx="541.7" cy="382.4" r="12.9"/>
		</g>
		<g>
			<circle class="st7" cx="470.2" cy="383.3" r="45.2"/>
			<circle class="st6" cx="470.2" cy="383.3" r="4.7"/>
		</g>
		<g>
			<path class="st6" d="M470.2,426.3c-23.7,0-43-19.3-43-43s19.3-43,43-43c23.7,0,43,19.3,43,43S493.9,426.3,470.2,426.3z
				 M470.2,344.4c-21.4,0-38.9,17.4-38.9,38.9c0,21.4,17.4,38.9,38.9,38.9s38.9-17.4,38.9-38.9C509,361.9,491.6,344.4,470.2,344.4z"
				/>
		</g>
		<g>
			<circle class="st7" cx="612.3" cy="383.3" r="45.2"/>
			<circle class="st6" cx="612.3" cy="383.3" r="4.7"/>
			<g>
				<path class="st6" d="M612,426.3c-23.7,0-43-19.3-43-43s19.3-43,43-43c23.7,0,43,19.3,43,43S635.7,426.3,612,426.3z M612,344.4
					c-21.4,0-38.9,17.4-38.9,38.9c0,21.4,17.4,38.9,38.9,38.9s38.9-17.4,38.9-38.9C650.9,361.9,633.5,344.4,612,344.4z"/>
			</g>
		</g>
		<path class="st6" d="M469.8,384.9c-0.2,0-0.3,0-0.5-0.1c-1.1-0.3-1.7-1.3-1.5-2.4l30.5-114.6c0.3-1.1,1.3-1.8,2.4-1.5
			c1.1,0.3,1.7,1.3,1.5,2.4l-30.5,114.6C471.6,384.3,470.7,384.9,469.8,384.9z"/>
		<path class="st6" d="M543.1,384.3c-0.3,0-0.7-0.1-1-0.3c-0.9-0.6-1.2-1.8-0.6-2.7l46.4-71.8c0.6-0.9,1.8-1.2,2.7-0.6
			c0.9,0.6,1.2,1.8,0.6,2.7l-46.4,71.8C544.4,384,543.7,384.3,543.1,384.3z"/>
		<path class="st5" d="M571.7,304.3c0.7-5.1,5.1-4.4,17.4-3.6c12.3,0.7,11-5.1,20.3-3.6c9.4,1.5,3.6,10.7-9.4,13.4
			C590.9,312.4,570.9,309.4,571.7,304.3z"/>
		<path class="st6" d="M584.4,320.2c-0.1,0-0.2,0-0.4,0l-93.6-5.9c-1.1-0.1-1.9-1-1.9-2.1c0.1-1.1,1-1.9,2.1-1.9l93.6,5.9
			c1.1,0.1,1.9,1,1.9,2.1C586.1,319.3,585.4,320.1,584.4,320.2z"/>
		<path class="st6" d="M612.7,385.5C612.7,385.5,612.7,385.5,612.7,385.5l-71.2-0.8c-0.5,0-1-0.2-1.4-0.6l-52-67.4
			c-0.7-0.8-0.7-2,0.1-2.8s2-0.7,2.8,0.1l51.4,66.8l67.3,0.8l-26.8-63.4c-0.4-1,0-2.1,1-2.6c1-0.4,2.1,0,2.6,1l28,66.2
			c0.3,0.6,0.2,1.3-0.2,1.8C613.9,385.2,613.3,385.5,612.7,385.5z"/>
		<g>
			<path class="st8" d="M555.2,167.2c-6.7,1.8-5.9,7.9-4.4,16.1c0.2,1.3,1.2,3.3,1,4.6L550,192c-0.1,0.8,0.5,1.5,1.3,1.4l2-0.4
				c2.2,4.7,4.5,6.3,7.3,6.2c7.9-0.4,20.5-14.5,17.9-24.2C576,165.4,562.8,165.1,555.2,167.2z"/>
		</g>
		<path class="st3" d="M572.7,204.5c0,0,18.3,6.8,25.2,36.1s11.1,37,11.1,37l-31.9-1.6c0,0-3-14.1-14.2-24.2
			c-13.3-12-4.7-34.8-1.9-38.5C564.5,208.6,572.7,204.5,572.7,204.5z"/>
		<path class="st8" d="M561.2,196.3c0,0,9.7,2.9,0.2,16c-2.2,3,14.2-7.2,14.2-7.2s-4.8-1.9-2.5-16.2L561.2,196.3z"/>
		<path class="st8" d="M574.1,218.6c-7.8-3.4-19.7,30.5-27.2,35.4c-7.4,4.8-36.5,7.1-36.5,7.1l0.5,5.5c0,0,37.9,2,44.2-2.5
			S586.1,223.8,574.1,218.6z"/>
		<path class="st8" d="M516.7,261.4l-12-1.5c-2.1-0.3-4.1,0.6-5.3,2.3l-2.5,3.2c-0.8,1.1-0.6,2.6,0.5,3.3l6.2,4.2l7.8-4.8
			L516.7,261.4z"/>
		<circle class="st6" cx="505.9" cy="272.2" r="4.1"/>
		<path class="st4" d="M577.4,275.6c0,0-44.3,16.5-45.5,21.1c-1.2,4.5,14.6,59.8,14.6,59.8l12.2-4.9c0,0-8.8-39.7-7.1-43.4
			c1.7-3.7,46.5-2.2,56-11.4s-1-25.3-1-25.3L577.4,275.6z"/>
		<path class="st9" d="M564.2,164.4c0,0-11.6-16.9,6-10.6c8.7,3.1,3.8,11.7-1.3,11.7c-3.4,0-5-1-5-1"/>
		<path class="st6" d="M462.6,282.6l32.5,6.4l-11.1,40.7l-12.9-2.1c-5.3-0.9-9.2-6.2-9.1-12.6L462.6,282.6z"/>
		<path class="st5" d="M560,370.4l-15.8,6.1c-1.2,0.5-2.5-0.1-3-1.3l0,0c-0.5-1.2,0.1-2.5,1.3-3l15.8-6.1c1.2-0.5,2.5,0.1,3,1.3l0,0
			C561.7,368.6,561.1,370,560,370.4z"/>
		<path class="st3" d="M546.5,356.2c0,0-14.4,9.2-17.6,13.1c0,0-0.1,0.1-0.1,0.1c-2.6,3.3,0.7,7.9,4.7,6.8
			c5.3-1.5,13.5-4.6,20.1-7.5c2-0.9,10-3.4,10.8-5.2c1.7-3.8-5.7-12.1-5.7-12.1L546.5,356.2z"/>
		<path class="st9" d="M558.9,160.9c0,0,10.3-4.6,21.3,11.1c11,15.7,40.4-25.8,54.9-1.1c35.4-1.5,34.9,19.4,24.4,25.9
			c17.5,12.7-10.7,43-38.6,27.2c-13.7,14.7-37.3,9.1-44.9-17.8C548.3,183,565.2,173,556.6,179c-3.8,2.8-6.6,2.3-8.4,1.2
			c-2-1.2-3-3.5-2.9-5.8C545.5,170.4,550,162.3,558.9,160.9z"/>
	</g>
</g>
<g id="trees">
	<polygon class="st29" points="962.7,364.6 960.6,369.9 960.1,352.2 967.1,345 960,351 959.5,333.8 958.6,365.3 951.4,348.8 
		958.5,367.2 958.1,383 961,383 960.6,370.7 	"/>
	<polygon class="st29" points="294.8,360.5 291.7,366 291.3,351 297.3,344.9 291.2,350 290.8,335.4 290,362.1 283.9,348.1 
		290,363.7 289.6,377.2 292,377.2 291.7,366.8 	"/>
	<polygon class="st29" points="328.7,355 325.5,361.5 324.8,340.4 333.2,331.8 324.8,339 324.2,318.4 323.1,356 314.5,336.4 
		323,358.3 322.4,377.2 325.9,377.2 325.5,362.6 	"/>
	<path class="st29" d="M772,354.4l-6,13.2l0.6,11.8l-2.6,0l-0.1-11.7c-0.8-2.7-1.6-5.5-2.4-8.2l-2-7.1L744.6,342l14.4,8.9l-0.3-1.1
		c-1.8-6.5-3.6-13-5.2-19.6c2.1,6.4,4.1,12.9,6.1,19.3l0.6,2.1l0.1,0.1l-0.1,0.1l2.2,7.4c0.5,1.5,0.9,3,1.3,4.5l-0.4-47.1l2.5,48.8
		L772,354.4z"/>
	<path class="st29" d="M804.2,352.8c-1,2.1-1.9,4.3-2.9,6.5c-0.9,2.2-1.9,4.3-2.8,6.5l-1.7,3.9l-2.4-36.5l0.8,35.3
		c-0.3-1.1-0.7-2.2-1-3.4l-1.7-5.5l0.1-0.1l-0.1-0.1l-0.5-1.6c-1.6-4.8-3.1-9.6-4.8-14.4c1.3,4.9,2.7,9.8,4.1,14.6l0.2,0.8
		l-10.9-6.5l11.3,7.7l1.6,5.3c0.6,2.1,1.2,4.1,1.9,6.1l0.1,8.5l2,0l-0.5-8.6l2.2-5.3c0.9-2.2,1.8-4.4,2.7-6.5
		c0.9-2.2,1.8-4.3,2.6-6.5l2.6-6.6L804.2,352.8z"/>
	<path class="st29" d="M75.5,352.3l-0.7-2.1c-2.1-6.4-4.2-12.8-6.4-19.2c1.7,6.5,3.6,13,5.5,19.5l0.3,1.1l-14.5-8.7l15,10.3l2.1,7.1
		c0.8,2.7,1.7,5.5,2.5,8.2l0.2,11.9l2.7,0l-0.8-11.9l2.9-7c1.2-2.9,2.4-5.8,3.6-8.7c1.2-2.9,2.4-5.8,3.5-8.7L95,335l-3.9,8.6
		c-1.3,2.9-2.5,5.7-3.8,8.6c-1.3,2.9-2.5,5.7-3.8,8.6l-2.2,5.1l-3.2-48.7l1.1,47.1c-0.5-1.5-0.9-3-1.4-4.5L75.5,352.3z"/>
</g>
<g id="clouds">
	<path class="st3" d="M707.9,194.2h66.3c0,0-2.4-11.6-15.5-7.5c-15.4-13.8-29.9,2.5-29.9,2.5S721,182.5,707.9,194.2z"/>
	<path class="st3" d="M619.1,100h80.4c0,0-8.6-19-31.1-9.5C645.1,81.6,619.1,100,619.1,100z"/>
	<path class="st3" d="M378.5,200.5h107.6c0,0-11.6-27.6-31-13.8c-25.2-22.3-37.8,1.5-37.8,1.5S399.9,178.4,378.5,200.5z"/>
	<path class="st3" d="M220.6,153.1H268c0,0-3.4-8.7-13.1-4.3c-12.7-8.7-20.8-0.6-20.8-0.6S230.3,143.3,220.6,153.1z"/>
	<path class="st3" d="M230.7,132.2h-80.4c0,0,8.6-19,31.1-9.5C204.7,113.8,230.7,132.2,230.7,132.2z"/>
</g>
</svg>
