<?xml version="1.0" encoding="utf-8"?>
<!-- Generator: Adobe Illustrator 23.0.1, SVG Export Plug-In . SVG Version: 6.00 Build 0)  -->
<svg version="1.1" id="OBJECTS" xmlns="http://www.w3.org/2000/svg" xmlns:xlink="http://www.w3.org/1999/xlink" x="0px" y="0px"
	 viewBox="0 0 481.3 84.4" style="enable-background:new 0 0 481.3 84.4;" xml:space="preserve">
<style type="text/css">
	.st0{fill:#E6F2F9;}
	.st1{fill:#B8D5E4;}
	.st2{fill:#D2E7F4;}
	.st3{fill:#FFFFFF;}
	.st4{fill:#1A2743;}
	.st5{fill:#722E53;}
	.st6{fill:#B22F70;}
	.st7{fill:none;stroke:#1C2A3E;stroke-width:2.2741;stroke-miterlimit:10;}
	.st8{fill:#F2B395;}
	.st9{fill:#D99A32;}
	.st10{fill:#F6EDC1;}
	.st11{fill:#E7B955;}
	.st12{fill:#EFCF79;}
	.st13{fill:#BB6B45;}
	.st14{fill:#DC9A52;}
	.st15{fill:#D99469;}
	.st16{fill:#F5E1A8;}
	.st17{fill:#CCFFFF;}
	.st18{fill:#C5E7AD;}
	.st19{fill:#92CA84;}
	.st20{fill:#6C7D47;}
	.st21{fill:#9CBD6A;}
	.st22{fill:#4F9151;}
	.st23{fill:#CC0033;}
	.st24{fill:#D7F5FF;}
	.st25{fill:#B6CF94;}
	.st26{fill:#9AC091;}
	.st27{fill:#EAAF29;}
	.st28{fill:#8DB458;}
	.st29{fill:#1C2A3E;}
</style>
<path class="st24" d="M144.6,74.9l254.8,2.2c1.3,0,2.7,0.1,4,0.2c24.5,1.9,42.7,4.9,55.8,2.4c13.5-2.6,21.2-17,16.3-29.9l0,0
	c-3.5-9.2,3.8-20.5,1.9-30.2c-2-9.7-4.7-14.6-21.3-13.8c-4.2,0.2-65.7,1.6-69.9,1.6L104.6,6.4c-48.6,1.5-93.7-18-99,16.2
	c-0.3,2.2-0.4,4.4-0.4,6.5l0.3,27.7c0.1,9.6,5,21.8,19.1,19.5C61.3,70.2,139.5,74.9,144.6,74.9z"/>
</svg>
