<?xml version="1.0" encoding="utf-8"?>
<!-- Generator: Adobe Illustrator 23.0.1, SVG Export Plug-In . SVG Version: 6.00 Build 0)  -->
<svg version="1.1" id="Capa_1" xmlns="http://www.w3.org/2000/svg" xmlns:xlink="http://www.w3.org/1999/xlink" x="0px" y="0px"
	 viewBox="0 0 25 25" style="enable-background:new 0 0 25 25;" xml:space="preserve">
<style type="text/css">
	.st0{fill:#222221;}
	.st1{fill:#FFFFFF;}
	.st2{fill-rule:evenodd;clip-rule:evenodd;fill:#FFFFFF;}
	.st3{fill-rule:evenodd;clip-rule:evenodd;fill:#FFFFFF;stroke:#222221;stroke-miterlimit:10;}
	.st4{fill:none;stroke:#222221;stroke-width:1.5;stroke-miterlimit:10;}
	.st5{fill-rule:evenodd;clip-rule:evenodd;fill:#222221;}
</style>
<g id="XMLID_1707_">
	<path id="XMLID_1713_" class="st0" d="M12.6,24.3L12.6,24.3c-6.6,0-12-5.4-12-12v0c0-6.6,5.4-12,12-12l0,0c6.6,0,12,5.4,12,12v0
		C24.6,19,19.2,24.3,12.6,24.3z"/>
	<g id="XMLID_1708_">
		<g id="XMLID_1710_">
			<rect id="XMLID_1712_" x="7.2" y="9.7" class="st1" width="2.5" height="8"/>
			<path id="XMLID_1711_" class="st1" d="M8.4,8.6c0.8,0,1.5-0.7,1.5-1.5S9.2,5.7,8.4,5.7c-0.8,0-1.5,0.7-1.5,1.5S7.6,8.6,8.4,8.6z"
				/>
		</g>
		<path id="XMLID_1709_" class="st1" d="M13.6,13.5c0-1.1,0.5-1.8,1.5-1.8c0.9,0,1.4,0.6,1.4,1.8c0,1.2,0,4.2,0,4.2H19
			c0,0,0-2.9,0-5.1c0-2.1-1.2-3.2-2.9-3.2c-1.7,0-2.4,1.3-2.4,1.3V9.7h-2.4v8h2.4C13.6,17.7,13.6,14.7,13.6,13.5z"/>
	</g>
</g>
</svg>
