<?xml version="1.0" encoding="utf-8"?>
<!-- Generator: Adobe Illustrator 23.0.1, SVG Export Plug-In . SVG Version: 6.00 Build 0)  -->
<svg version="1.1" id="Capa_1" xmlns="http://www.w3.org/2000/svg" xmlns:xlink="http://www.w3.org/1999/xlink" x="0px" y="0px"
	 viewBox="0 0 25 25" style="enable-background:new 0 0 25 25;" xml:space="preserve">
<style type="text/css">
	.st0{fill:#222221;}
	.st1{fill:#FFFFFF;}
	.st2{fill-rule:evenodd;clip-rule:evenodd;fill:#FFFFFF;}
	.st3{fill-rule:evenodd;clip-rule:evenodd;fill:#FFFFFF;stroke:#222221;stroke-miterlimit:10;}
	.st4{fill:none;stroke:#222221;stroke-width:1.5;stroke-miterlimit:10;}
	.st5{fill-rule:evenodd;clip-rule:evenodd;fill:#222221;}
</style>
<g id="XMLID_1693_">
	<path id="XMLID_1695_" class="st0" d="M12.5,24.4L12.5,24.4c-6.6,0-12-5.4-12-12v0c0-6.6,5.4-12,12-12h0c6.6,0,12,5.4,12,12v0
		C24.5,19.1,19.1,24.4,12.5,24.4z"/>
	<path id="XMLID_1694_" class="st1" d="M10.6,19.7h2.9v-7.3h2l0.2-2.4h-2.3c0,0,0-0.9,0-1.4c0-0.6,0.1-0.8,0.7-0.8
		c0.4,0,1.6,0,1.6,0V5.2c0,0-1.7,0-2,0c-2.2,0-3.2,1-3.2,2.8c0,1.6,0,2,0,2H9.1v2.5h1.5V19.7z"/>
</g>
</svg>
