<?xml version="1.0" encoding="utf-8"?>
<!-- Generator: Adobe Illustrator 23.0.1, SVG Export Plug-In . SVG Version: 6.00 Build 0)  -->
<svg version="1.1" id="Capa_1" xmlns="http://www.w3.org/2000/svg" xmlns:xlink="http://www.w3.org/1999/xlink" x="0px" y="0px"
	 viewBox="0 0 25 25" style="enable-background:new 0 0 25 25;" xml:space="preserve">
<style type="text/css">
	.st0{fill:#222221;}
	.st1{fill:#FFFFFF;}
	.st2{fill-rule:evenodd;clip-rule:evenodd;fill:#FFFFFF;}
	.st3{fill-rule:evenodd;clip-rule:evenodd;fill:#FFFFFF;stroke:#222221;stroke-miterlimit:10;}
	.st4{fill:none;stroke:#222221;stroke-width:1.5;stroke-miterlimit:10;}
	.st5{fill-rule:evenodd;clip-rule:evenodd;fill:#222221;}
</style>
<g id="XMLID_1683_">
	<path id="XMLID_1692_" class="st0" d="M12.6,24.6L12.6,24.6c-6.6,0-12-5.4-12-12v0c0-6.6,5.4-12,12-12l0,0c6.6,0,12,5.4,12,12v0
		C24.6,19.3,19.2,24.6,12.6,24.6z"/>
	<g id="XMLID_1684_">
		<path id="XMLID_1689_" class="st1" d="M12.6,7.2c1.8,0,2,0,2.7,0c0.6,0,1,0.1,1.2,0.2C16.8,7.6,17,7.8,17.2,8
			c0.2,0.2,0.4,0.4,0.5,0.8c0.1,0.2,0.2,0.6,0.2,1.2c0,0.7,0,0.9,0,2.7s0,2,0,2.7c0,0.6-0.1,1-0.2,1.2c-0.1,0.3-0.3,0.5-0.5,0.8
			c-0.2,0.2-0.4,0.4-0.8,0.5c-0.2,0.1-0.6,0.2-1.2,0.2c-0.7,0-0.9,0-2.7,0c-1.8,0-2,0-2.7,0c-0.6,0-1-0.1-1.2-0.2
			c-0.3-0.1-0.5-0.3-0.8-0.5c-0.2-0.2-0.4-0.4-0.5-0.8c-0.1-0.2-0.2-0.6-0.2-1.2c0-0.7,0-0.9,0-2.7s0-2,0-2.7c0-0.6,0.1-1,0.2-1.2
			C7.6,8.4,7.7,8.2,8,8c0.2-0.2,0.4-0.4,0.8-0.5c0.2-0.1,0.6-0.2,1.2-0.2C10.6,7.2,10.8,7.2,12.6,7.2 M12.6,6.1c-1.8,0-2,0-2.7,0
			c-0.7,0-1.2,0.1-1.6,0.3C7.8,6.6,7.5,6.8,7.1,7.2S6.5,7.9,6.4,8.3C6.2,8.7,6.1,9.2,6.1,9.9c0,0.7,0,0.9,0,2.7c0,1.8,0,2,0,2.7
			c0,0.7,0.1,1.2,0.3,1.6c0.2,0.4,0.4,0.8,0.8,1.2c0.4,0.4,0.7,0.6,1.2,0.8c0.4,0.2,0.9,0.3,1.6,0.3c0.7,0,0.9,0,2.7,0
			c1.8,0,2,0,2.7,0c0.7,0,1.2-0.1,1.6-0.3c0.4-0.2,0.8-0.4,1.2-0.8c0.4-0.4,0.6-0.7,0.8-1.2c0.2-0.4,0.3-0.9,0.3-1.6
			c0-0.7,0-0.9,0-2.7c0-1.8,0-2,0-2.7c0-0.7-0.1-1.2-0.3-1.6c-0.2-0.4-0.4-0.8-0.8-1.2c-0.4-0.4-0.7-0.6-1.2-0.8
			c-0.4-0.2-0.9-0.3-1.6-0.3C14.6,6.1,14.4,6.1,12.6,6.1"/>
		<path id="XMLID_1686_" class="st1" d="M12.6,9.3c-1.9,0-3.4,1.5-3.4,3.4c0,1.9,1.5,3.4,3.4,3.4c1.9,0,3.4-1.5,3.4-3.4
			C16,10.8,14.5,9.3,12.6,9.3 M12.6,14.8c-1.2,0-2.2-1-2.2-2.2c0-1.2,1-2.2,2.2-2.2s2.2,1,2.2,2.2C14.8,13.8,13.8,14.8,12.6,14.8"/>
		<path id="XMLID_1685_" class="st1" d="M16.9,9.1c0,0.4-0.4,0.8-0.8,0.8c-0.4,0-0.8-0.4-0.8-0.8c0-0.4,0.4-0.8,0.8-0.8
			C16.5,8.3,16.9,8.7,16.9,9.1"/>
	</g>
</g>
</svg>
