<?xml version="1.0" encoding="utf-8"?>
<!-- Generator: Adobe Illustrator 23.0.1, SVG Export Plug-In . SVG Version: 6.00 Build 0)  -->
<svg version="1.1" id="Capa_1" xmlns="http://www.w3.org/2000/svg" xmlns:xlink="http://www.w3.org/1999/xlink" x="0px" y="0px"
	 viewBox="0 0 25 25" style="enable-background:new 0 0 25 25;" xml:space="preserve">
<style type="text/css">
	.st0{fill:#222221;}
	.st1{fill:#FFFFFF;}
	.st2{fill-rule:evenodd;clip-rule:evenodd;fill:#FFFFFF;}
	.st3{fill-rule:evenodd;clip-rule:evenodd;fill:#FFFFFF;stroke:#222221;stroke-miterlimit:10;}
	.st4{fill:none;stroke:#222221;stroke-width:1.5;stroke-miterlimit:10;}
	.st5{fill-rule:evenodd;clip-rule:evenodd;fill:#222221;}
</style>
<g id="XMLID_1723_">
	<path id="XMLID_1725_" class="st0" d="M12.5,24.5L12.5,24.5c-6.6,0-12-5.4-12-12v0c0-6.6,5.4-12,12-12l0,0c6.6,0,12,5.4,12,12v0
		C24.5,19.1,19.1,24.5,12.5,24.5z"/>
	<path id="XMLID_1724_" class="st1" d="M6.1,16.5c1.2,0.7,2.5,1.2,4,1.2c4.9,0,7.6-4.1,7.5-7.8c0.5-0.4,1-0.8,1.3-1.4
		c-0.5,0.2-1,0.3-1.5,0.4c0.5-0.3,1-0.8,1.2-1.5C18,7.8,17.5,8,16.9,8.1c-0.5-0.5-1.2-0.8-1.9-0.8c-1.7,0-2.9,1.6-2.6,3.2
		C10.2,10.4,8.3,9.4,7,7.8C6.3,9,6.6,10.5,7.8,11.3c-0.4,0-0.8-0.1-1.2-0.3c0,1.2,0.8,2.4,2.1,2.6c-0.4,0.1-0.8,0.1-1.2,0
		c0.3,1,1.3,1.8,2.5,1.8C8.9,16.3,7.5,16.7,6.1,16.5z"/>
</g>
</svg>
