<?xml version="1.0" encoding="utf-8"?>
<!-- Generator: Adobe Illustrator 23.0.1, SVG Export Plug-In . SVG Version: 6.00 Build 0)  -->
<svg version="1.1" xmlns="http://www.w3.org/2000/svg" xmlns:xlink="http://www.w3.org/1999/xlink" x="0px" y="0px"
	 viewBox="0 0 121.5 53" style="enable-background:new 0 0 121.5 53;" xml:space="preserve">
<style type="text/css">
	.st0{fill:#8A8A91;}
	.st1{fill:#3E3E42;}
</style>
<g id="BACKGROUND">
</g>
<g id="OBJECTS">
	<g>
		<rect x="2.2" y="1.6" class="st0" width="3.5" height="25.9"/>
	</g>
	<g>
		<path class="st1" d="M95.9,50.3c-12.7,0-23.1-10.4-23.1-23.1S83.1,4.1,95.9,4.1S119,14.4,119,27.2c0,1.6-1.3,2.9-2.9,2.9H83.4
			v-5.9h29.4c-1.4-8.1-8.5-14.3-17-14.3c-9.5,0-17.2,7.7-17.2,17.2s7.7,17.2,17.2,17.2c6.7,0,12.6-3.7,15.5-9.7l5.3,2.6
			C112.8,45.2,104.7,50.3,95.9,50.3z"/>
	</g>
	<g>
		
			<rect x="29.9" y="26.7" transform="matrix(1.233781e-02 -0.9999 0.9999 1.233781e-02 22.9115 79.9929)" class="st0" width="44.1" height="3.5"/>
	</g>
	<g>
		
			<rect x="68.1" y="22.2" transform="matrix(0.7744 -0.6327 0.6327 0.7744 -8.0083 52.638)" class="st0" width="3.4" height="30.6"/>
	</g>
	<g>
		<path class="st1" d="M25.3,50.8c-12.7,0-23.1-10.4-23.1-23.1S12.6,4.6,25.3,4.6s23.1,10.4,23.1,23.1S38.1,50.8,25.3,50.8z
			 M25.3,10.4c-9.5,0-17.2,7.7-17.2,17.2s7.7,17.2,17.2,17.2s17.2-7.7,17.2-17.2S34.8,10.4,25.3,10.4z"/>
	</g>
	<g>
		
			<rect x="34.9" y="24.3" transform="matrix(1.574922e-02 -0.9999 0.9999 1.574922e-02 32.3485 84.9519)" class="st0" width="48.9" height="3.5"/>
	</g>
	<g>
		<rect x="54.5" y="12.4" transform="matrix(0.7415 -0.6709 0.6709 0.7415 9.1089 51.4826)" class="st0" width="33.7" height="3"/>
	</g>
	<g>
		
			<rect x="50.5" y="1.5" transform="matrix(3.609878e-03 -1 1 3.609878e-03 48.7493 55.4176)" class="st0" width="3.3" height="3.5"/>
	</g>
</g>
<g id="DESIGNED_BY_FREEPIK">
</g>
</svg>
