<?xml version="1.0" encoding="utf-8"?>
<!-- Generator: Adobe Illustrator 23.0.1, SVG Export Plug-In . SVG Version: 6.00 Build 0)  -->
<svg version="1.1" id="icons" xmlns="http://www.w3.org/2000/svg" xmlns:xlink="http://www.w3.org/1999/xlink" x="0px" y="0px"
	 viewBox="0 0 24 24" style="enable-background:new 0 0 24 24;" xml:space="preserve">
<style type="text/css">
	.st0{fill:none;stroke:#9AC63C;stroke-linecap:round;stroke-miterlimit:10;}
	.st1{fill:none;stroke:#F4C259;stroke-linecap:round;stroke-miterlimit:10;}
	.st2{fill:none;stroke:#CD474A;stroke-linecap:round;stroke-linejoin:round;stroke-miterlimit:10;}
	.st3{fill:none;stroke:#2790EF;stroke-linecap:round;stroke-miterlimit:10;}
	.st4{fill:none;stroke:#298FEC;stroke-linecap:round;stroke-linejoin:round;stroke-miterlimit:10;}
	.st5{fill:none;stroke:#298FEC;stroke-linecap:round;stroke-miterlimit:10;}
</style>
<g id="spring">
	<path class="st0" d="M9.4,23c-5-1.1-8.8-5.6-8.8-11c0-6.2,5-11.3,11.3-11.3s11.3,5,11.3,11.3s-5,11.3-11.3,11.3
		c0,0-2.3-13.5,7.4-11.8c0,0,0.9,8.5-7.2,6.9"/>
	<path class="st0" d="M11.9,12c0,0,5.6-4,0-8.7C11.9,3.4,6.5,7.7,11.9,12z"/>
	<path class="st0" d="M10,16.5c0,0,1.1-6.1-5.5-5.6C4.5,10.9,3.8,17.1,10,16.5z"/>
</g>
</svg>
