<?xml version="1.0" encoding="utf-8"?>
<!-- Generator: Adobe Illustrator 23.0.1, SVG Export Plug-In . SVG Version: 6.00 Build 0)  -->
<svg version="1.1" id="icons" xmlns="http://www.w3.org/2000/svg" xmlns:xlink="http://www.w3.org/1999/xlink" x="0px" y="0px"
	 viewBox="0 0 24 24" style="enable-background:new 0 0 24 24;" xml:space="preserve">
<style type="text/css">
	.st0{fill:none;stroke:#9AC63C;stroke-linecap:round;stroke-miterlimit:10;}
	.st1{fill:none;stroke:#F4C259;stroke-linecap:round;stroke-miterlimit:10;}
	.st2{fill:none;stroke:#CD474A;stroke-linecap:round;stroke-linejoin:round;stroke-miterlimit:10;}
	.st3{fill:none;stroke:#2790EF;stroke-linecap:round;stroke-miterlimit:10;}
	.st4{fill:none;stroke:#298FEC;stroke-linecap:round;stroke-linejoin:round;stroke-miterlimit:10;}
	.st5{fill:none;stroke:#298FEC;stroke-linecap:round;stroke-miterlimit:10;}
</style>
<g id="spring">
	<path class="st0" d="M-122.6,23c-5-1.1-8.8-5.6-8.8-11c0-6.2,5-11.3,11.3-11.3s11.3,5,11.3,11.3s-5,11.3-11.3,11.3
		c0,0-2.3-13.5,7.4-11.8c0,0,0.9,8.5-7.2,6.9"/>
	<path class="st0" d="M-120.1,12c0,0,5.6-4,0-8.7C-120.1,3.4-125.5,7.7-120.1,12z"/>
	<path class="st0" d="M-122,16.5c0,0,1.1-6.1-5.5-5.6C-127.5,10.9-128.2,17.1-122,16.5z"/>
</g>
<g id="summer">
	<path class="st1" d="M-78.4,23c-5-1.1-8.8-5.6-8.8-11c0-6.2,5-11.3,11.3-11.3c6.2,0,11.3,5,11.3,11.3s-5,11.3-11.3,11.3"/>
	<line class="st1" x1="-75.9" y1="23.3" x2="-75.9" y2="17.4"/>
	<circle class="st1" cx="-76" cy="12" r="4.8"/>
	<line class="st1" x1="-75.9" y1="4.2" x2="-75.9" y2="7.1"/>
	<line class="st1" x1="-78.9" y1="4.8" x2="-77.8" y2="7.4"/>
	<line class="st1" x1="-81.4" y1="6.5" x2="-79.4" y2="8.5"/>
	<line class="st1" x1="-83.1" y1="9" x2="-80.5" y2="10.1"/>
	<line class="st1" x1="-83.7" y1="12" x2="-80.8" y2="12"/>
	<line class="st1" x1="-83.1" y1="14.9" x2="-80.5" y2="13.9"/>
	<line class="st1" x1="-81.4" y1="17.5" x2="-79.4" y2="15.5"/>
	<line class="st1" x1="-78.9" y1="19.1" x2="-77.8" y2="16.5"/>
	<line class="st1" x1="-72.9" y1="19.1" x2="-74" y2="16.5"/>
	<line class="st1" x1="-70.4" y1="17.5" x2="-72.4" y2="15.5"/>
	<line class="st1" x1="-68.8" y1="15" x2="-71.4" y2="13.9"/>
	<line class="st1" x1="-68.2" y1="12" x2="-71" y2="12"/>
	<line class="st1" x1="-68.8" y1="9" x2="-71.4" y2="10.1"/>
	<line class="st1" x1="-70.4" y1="6.5" x2="-72.4" y2="8.5"/>
	<line class="st1" x1="-72.9" y1="4.8" x2="-74" y2="7.4"/>
</g>
<path id="Autumn" class="st2" d="M-34.4,23c-5-1.1-8.8-5.6-8.8-11c0-6.2,5-11.3,11.3-11.3s11.3,5,11.3,11.3s-5,11.3-11.3,11.3
	l0.2-5.9l3.4,0.8l-0.5-2.6l4.7-0.8l-1-1.7l1.5-2l-2.5-0.3l0.1-2.1l-2.5,1.8l0.6-5.3L-30,6.3l-1.7-2.8l-1.2,2.8l-2.5-1.2l0.6,5.6
	L-37,8.9l-0.3,1.8l-2.5,0.4L-38,13l-1.3,1.4l4.7,0.9l-0.7,2.7l3.6-0.6"/>
<g id="winter">
	<path class="st3" d="M9.5,23c-5-1.1-8.8-5.6-8.8-11c0-6.2,5-11.3,11.3-11.3s11.3,5,11.3,11.3s-5,11.3-11.3,11.3"/>
	<polygon class="st4" points="10.1,12.9 10.1,10.8 11.9,9.8 13.7,10.8 13.7,12.8 11.9,13.9 	"/>
	<g>
		<line class="st4" x1="11.9" y1="9.8" x2="11.9" y2="3.8"/>
		<line class="st5" x1="13.7" y1="5.2" x2="12.1" y2="6.4"/>
		<line class="st4" x1="10.2" y1="5.2" x2="11.6" y2="6.4"/>
	</g>
	<g>
		<line class="st4" x1="10.4" y1="10.4" x2="6.2" y2="6.2"/>
		<line class="st5" x1="8.5" y1="5.9" x2="8.2" y2="7.8"/>
		<line class="st4" x1="6" y1="8.3" x2="7.9" y2="8.2"/>
	</g>
	<g>
		<line class="st4" x1="9.8" y1="11.8" x2="3.9" y2="11.8"/>
		<line class="st5" x1="5.3" y1="10" x2="6.5" y2="11.5"/>
		<line class="st4" x1="5.3" y1="13.5" x2="6.5" y2="12.1"/>
	</g>
	<g>
		<line class="st4" x1="10.5" y1="13.3" x2="6.2" y2="17.5"/>
		<line class="st5" x1="6" y1="15.2" x2="7.9" y2="15.5"/>
		<line class="st4" x1="8.4" y1="17.7" x2="8.2" y2="15.8"/>
	</g>
	<g>
		<line class="st4" x1="11.9" y1="13.8" x2="11.9" y2="23.3"/>
		<line class="st5" x1="10.1" y1="18.4" x2="11.6" y2="17.2"/>
		<line class="st4" x1="13.6" y1="18.4" x2="12.1" y2="17.2"/>
	</g>
	<g>
		<line class="st4" x1="13.3" y1="13.2" x2="17.6" y2="17.5"/>
		<line class="st5" x1="15.3" y1="17.7" x2="15.5" y2="15.8"/>
		<line class="st4" x1="17.7" y1="15.3" x2="15.9" y2="15.4"/>
	</g>
	<g>
		<line class="st4" x1="13.9" y1="11.8" x2="19.9" y2="11.8"/>
		<line class="st5" x1="18.5" y1="13.6" x2="17.3" y2="12.1"/>
		<line class="st4" x1="18.5" y1="10.1" x2="17.3" y2="11.5"/>
	</g>
	<g>
		<line class="st4" x1="13.3" y1="10.4" x2="17.5" y2="6.1"/>
		<line class="st5" x1="17.8" y1="8.4" x2="15.9" y2="8.2"/>
		<line class="st4" x1="15.3" y1="5.9" x2="15.5" y2="7.8"/>
	</g>
</g>
</svg>
